<svg id="svg4197" version="1.1" viewBox="0 0 49.251 38.845" xmlns="http://www.w3.org/2000/svg">
 <g id="layer1" transform="translate(-375.3 -851.8)">
  <path id="path22" d="m116.2 619.88c-5.4788 0-9.935-4.4575-9.935-9.9362 0-5.4775 4.4562-9.935 9.935-9.935s9.935 4.4575 9.935 9.935c0 5.4788-4.4562 9.9362-9.935 9.9362m0-21.275c-6.2525 0-11.339 5.0862-11.339 11.339s5.0862 11.34 11.339 11.34c6.2512 0 11.339-5.0875 11.339-11.34s-5.0875-11.339-11.339-11.339" style="fill:#fff"/>
  <path id="path26" d="m116.2 595.28c0.3875 0 0.70125-0.31375 0.70125-0.7025v-5.605c0-0.3875-0.31375-0.70125-0.70125-0.70125s-0.7025 0.31375-0.7025 0.70125v5.605c0 0.38875 0.315 0.7025 0.7025 0.7025" style="fill:#fff"/>
  <path id="path30" d="m116.2 624.44c-0.3875 0-0.7025 0.31375-0.7025 0.7025v5.605c0 0.3875 0.315 0.70125 0.7025 0.70125s0.70125-0.31375 0.70125-0.70125v-5.605c0-0.38875-0.31375-0.7025-0.70125-0.7025" style="fill:#fff"/>
  <path id="path34" d="m123.88 597.46c0.115 0.0713 0.2425 0.105 0.36875 0.105 0.235 0 0.465-0.1175 0.5975-0.3325l2.9512-4.7662c0.2025-0.33 0.10125-0.76125-0.2275-0.96625-0.33-0.20375-0.7625-0.1025-0.96625 0.2275l-2.9512 4.7675c-0.20375 0.32875-0.1025 0.76125 0.2275 0.965" style="fill:#fff"/>
  <path id="path38" d="m108.53 622.26c-0.32875-0.20375-0.7625-0.1025-0.96625 0.2275l-2.9512 4.7662c-0.20375 0.33-0.10125 0.76125 0.2275 0.96625 0.11625 0.0712 0.2425 0.105 0.36875 0.105 0.235 0 0.465-0.1175 0.5975-0.3325l2.9512-4.7675c0.20375-0.32875 0.10125-0.76125-0.2275-0.965" style="fill:#fff"/>
  <path id="path42" d="m129.68 603.37c0.1125 0 0.225-0.0262 0.33125-0.0825l4.945-2.6488c0.3425-0.1825 0.47125-0.6075 0.2875-0.95-0.1825-0.34-0.6075-0.47-0.95-0.28625l-4.945 2.6475c-0.3425 0.1825-0.47125 0.60875-0.2875 0.95 0.12625 0.23625 0.36875 0.37 0.61875 0.37" style="fill:#fff"/>
  <path id="path46" d="m102.38 616.48-4.9475 2.6475c-0.34125 0.18375-0.47 0.6075-0.2875 0.95 0.1275 0.23625 0.36875 0.37125 0.62 0.37125 0.11125 0 0.22375-0.0275 0.33-0.0838l4.9462-2.6475c0.3425-0.18375 0.47125-0.60875 0.28875-0.95125-0.18375-0.34-0.6075-0.46875-0.95-0.28625" style="fill:#fff"/>
  <path id="path50" d="m137.1 609.12h-2e-3l-5.61 0.0162c-0.3875 1e-3 -0.70125 0.31625-0.7 0.70375 1e-3 0.38625 0.315 0.7 0.70125 0.7h2e-3l5.61-0.0162c0.3875-1e-3 0.70125-0.31625 0.7-0.70375-1e-3 -0.3875-0.315-0.7-0.70125-0.7" style="fill:#fff"/>
  <path id="path54" d="m101.6 609.92c-1e-3 -0.3875-0.315-0.7-0.7025-0.7h-1e-3l-5.61 0.0163c-0.38875 1e-3 -0.70125 0.31625-0.7 0.70375 1e-3 0.3875 0.315 0.7 0.70125 0.7h2e-3l5.61-0.0163c0.3875-1e-3 0.7-0.31625 0.7-0.70375" style="fill:#fff"/>
  <path id="path58" d="m134.89 619.27-4.925-2.6912c-0.34-0.18625-0.76625-0.0613-0.9525 0.27875-0.185 0.34-0.06 0.7675 0.28 0.9525l4.9238 2.69c0.1075 0.06 0.2225 0.0875 0.33625 0.0875 0.2475 0 0.49-0.1325 0.61625-0.365 0.18625-0.34125 0.06-0.7675-0.27875-0.9525" style="fill:#fff"/>
  <path id="path62" d="m103.11 601.9-4.9238-2.6912c-0.34-0.18625-0.7675-0.0613-0.9525 0.27875-0.18625 0.34-0.0613 0.7675 0.27875 0.9525l4.9238 2.6912c0.1075 0.0588 0.2225 0.0863 0.33625 0.0863 0.24875 0 0.49-0.1325 0.6175-0.365 0.185-0.34 0.06-0.7675-0.28-0.9525" style="fill:#fff"/>
  <path id="path66" d="m124.91 622.46c-0.205-0.3275-0.6375-0.42875-0.96625-0.2225-0.32875 0.205-0.42875 0.63875-0.2225 0.96625l2.9738 4.7588c0.1325 0.2125 0.36125 0.32875 0.595 0.32875 0.1275 0 0.255-0.0337 0.37125-0.10625 0.32875-0.205 0.42875-0.63875 0.22375-0.9675z" style="fill:#fff"/>
  <path id="path70" d="m107.5 597.26c0.1325 0.2125 0.3625 0.33 0.595 0.33 0.1275 0 0.25625-0.035 0.37125-0.10625 0.32875-0.20625 0.42875-0.64 0.22375-0.9675l-2.975-4.7588c-0.205-0.3275-0.6375-0.42875-0.9675-0.2225-0.32875 0.205-0.4275 0.63875-0.2225 0.96625z" style="fill:#fff"/>
  <path id="path74" d="m205.83 627.19 20.716-1e-3c0.1375 0 0.28125 0 0.415 0.015v-0.0137c3.3838 0 6.1362-2.7525 6.1362-6.1362s-2.7525-6.1362-6.1362-6.1362c-0.4775 0-0.975 0.0613-1.48 0.18625-0.16375 0.04-0.3375 0.0112-0.47875-0.0838-0.14-0.0937-0.235-0.24125-0.26125-0.40875-0.685-4.3662-4.3912-7.5362-8.81-7.5362-4.9238 0-8.93 4.0062-8.93 8.9312 0 0.24125 0.0175 0.48 0.0362 0.7175 0.015 0.17875-0.05 0.355-0.17875 0.48s-0.30625 0.185-0.485 0.16875c-0.17875-0.0188-0.35875-0.0313-0.54375-0.0313-2.7138 0-4.9225 2.21-4.9225 4.9238 0 2.715 2.2088 4.925 4.9225 4.925m-0.0325-11.054c0-0.0425-1e-3 -0.0863-1e-3 -0.13 0-5.5888 4.5462-10.136 10.135-10.136 4.805 0 8.8662 3.3025 9.8838 7.9362 0.38875-0.0637 0.77125-0.0937 1.1462-0.0937 4.0488 0 7.3412 3.2925 7.3412 7.3412 0 4.0475-3.2925 7.3412-7.3412 7.3412h-6e-3c-0.09-1e-3 -2.4062-1e-3 -5.4725-1e-3l-15.652 1e-3c-3.3788 0-6.1275-2.75-6.1275-6.13 0-3.3688 2.73-6.11 6.095-6.1288" style="fill:#fff"/>
  <path id="path78" d="m193.84 610.06c0-5.3675 4.3675-9.7338 9.7338-9.7338 3.2825 0 6.1238 1.405 7.9325 4.1462 0.1825 0.27875 0.10625 0.6525-0.17125 0.835-0.27875 0.185-0.6525 0.1075-0.835-0.17-1.585-2.4025-4.0512-3.6062-6.9262-3.6062-4.7025 0-8.5288 3.825-8.5288 8.5288 0 2.9112 1.4625 5.5938 3.9112 7.1725 0.27875 0.18125 0.36 0.55375 0.17875 0.8325-0.11375 0.18-0.3075 0.27625-0.505 0.27625-0.1125 0-0.22625-0.03-0.3275-0.0962-2.7938-1.8025-4.4625-4.8625-4.4625-8.185" style="fill:#fff"/>
  <path id="path82" d="m203.44 597.34c-0.33375 0-0.6025-0.26875-0.6025-0.60125v-4.8138c0-0.3325 0.26875-0.60125 0.6025-0.60125 0.3325 0 0.6025 0.26875 0.6025 0.60125v4.8138c0 0.3325-0.27 0.60125-0.6025 0.60125" style="fill:#fff"/>
  <path id="path86" d="m196.85 599.22c-0.0987 0.0613-0.2075 0.09-0.31625 0.09-0.20125 0-0.39875-0.10125-0.51375-0.285l-2.5325-4.0925c-0.17375-0.2825-0.0875-0.65375 0.195-0.83 0.28375-0.17375 0.65375-0.0875 0.83 0.19625l2.5325 4.0912c0.17625 0.28375 0.0887 0.65375-0.195 0.83" style="fill:#fff"/>
  <path id="path90" d="m191.87 604.29c-0.095 0-0.1925-0.0238-0.28375-0.0713l-4.245-2.2738c-0.29375-0.15625-0.405-0.52125-0.2475-0.815 0.15625-0.29375 0.52125-0.405 0.81625-0.2475l4.245 2.2738c0.29375 0.1575 0.405 0.5225 0.24625 0.815-0.1075 0.20375-0.31625 0.31875-0.53125 0.31875" style="fill:#fff"/>
  <path id="path94" d="m185.5 609.23h2e-3l4.815 0.0138c0.33375 0 0.6025 0.27125 0.60125 0.60375-1e-3 0.3325-0.27 0.60125-0.6025 0.60125h-1e-3l-4.815-0.0137c-0.33375-1e-3 -0.6025-0.2725-0.6025-0.60625 1e-3 -0.33125 0.27-0.59875 0.6025-0.59875" style="fill:#fff"/>
  <path id="path98" d="m187.4 617.94 4.2275-2.3112c0.2925-0.15875 0.65875-0.0525 0.8175 0.24125 0.16 0.29125 0.0525 0.6575-0.24 0.81625l-4.2275 2.3112c-0.0912 0.05-0.19 0.0725-0.28875 0.0725-0.21125 0-0.41875-0.1125-0.52875-0.31375-0.15875-0.29125-0.0512-0.6575 0.24-0.81625" style="fill:#fff"/>
  <path id="path102" d="m219.49 601.78-4.2275 2.31c-0.0925 0.0513-0.19125 0.0738-0.28875 0.0738-0.2125 0-0.42-0.11375-0.52875-0.31375-0.16-0.29125-0.0525-0.6575 0.24-0.81625l4.2275-2.3112c0.2925-0.16 0.6575-0.0525 0.8175 0.24 0.15875 0.29125 0.0525 0.6575-0.24 0.8175" style="fill:#fff"/>
  <path id="path106" d="m195.97 620.68c0.1775-0.2825 0.5475-0.36875 0.83125-0.19 0.28125 0.175 0.36625 0.5475 0.19 0.82875l-2.5538 4.085c-0.11375 0.1825-0.31125 0.28375-0.51125 0.28375-0.11 0-0.22-0.0313-0.31875-0.0913-0.2825-0.1775-0.36875-0.55-0.19125-0.83125l2.5538-4.085z" style="fill:#fff"/>
  <path id="path110" d="m210.92 599.04c-0.11375 0.1825-0.31125 0.28375-0.51125 0.28375-0.10875 0-0.21875-0.03-0.31875-0.0925-0.2825-0.17625-0.3675-0.5475-0.19125-0.83125l2.555-4.0838c0.17625-0.2825 0.5475-0.36875 0.83-0.19125 0.28125 0.17625 0.3675 0.5475 0.19 0.83z" style="fill:#fff"/>
  <path id="path114" d="m494.25 625.82c-0.27375-0.13875-0.6075-0.0263-0.745 0.2475l-1.9862 3.9475c-0.13625 0.275-0.0275 0.60875 0.24625 0.745 0.0825 0.04 0.1675 0.06 0.25125 0.06 0.20125 0 0.3975-0.11125 0.49625-0.30625l1.9838-3.9488c0.1375-0.2725 0.0288-0.6075-0.24625-0.745" style="fill:#fff"/>
  <path id="path118" d="m501.33 625.82c-0.27625-0.13875-0.6075-0.0263-0.7475 0.2475l-1.9838 3.9475c-0.13875 0.275-0.0275 0.60875 0.25 0.745 0.0788 0.04 0.1625 0.06 0.2475 0.06 0.20125 0 0.3975-0.11125 0.49375-0.30625l1.9862-3.9488c0.1375-0.2725 0.0263-0.6075-0.24625-0.745" style="fill:#fff"/>
  <path id="path122" d="m508.4 625.82c-0.27875-0.13875-0.61-0.0263-0.7475 0.2475l-1.9838 3.9475c-0.13875 0.275-0.0275 0.60875 0.24625 0.745 0.0775 0.04 0.16625 0.06 0.24875 0.06 0.20375 0 0.4-0.11125 0.49625-0.30625l1.9862-3.9488c0.1375-0.2725 0.0263-0.6075-0.24625-0.745" style="fill:#fff"/>
  <path id="path130" d="m491.22 621.97 19.102-1e-3c0.12625 0 0.2575 0 0.3825 0.0125v-0.0112c3.1188 0 5.6575-2.5388 5.6575-5.6588 0-3.1188-2.5388-5.6575-5.6575-5.6575-0.4425 0-0.9 0.0588-1.365 0.1725-0.15 0.0362-0.31125 0.01-0.44-0.0775-0.1325-0.0837-0.2175-0.2225-0.24375-0.375-0.63125-4.0275-4.0462-6.9488-8.1225-6.9488-4.5388 0-8.2338 3.6938-8.2338 8.2338 0 0.2225 0.0162 0.4425 0.0375 0.66 0.0113 0.165-0.05 0.32875-0.16875 0.44375-0.11625 0.11625-0.2825 0.17125-0.4475 0.15625-0.1625-0.0188-0.33-0.03-0.50125-0.03-2.5012 0-4.5388 2.0388-4.5388 4.54 0 2.5038 2.0375 4.5412 4.5388 4.5412m-0.0288-10.191v-0.12c0-5.1525 4.1912-9.345 9.3425-9.345 4.4325 0 8.1775 3.0425 9.1138 7.3162 0.35875-0.0588 0.71125-0.0875 1.0575-0.0875 3.7312 0 6.77 3.0362 6.77 6.7688 0 3.7338-3.0388 6.77-6.77 6.77h-19.485c-3.1138 0-5.6488-2.5362-5.6488-5.6525 0-3.105 2.5188-5.6338 5.62-5.65" style="fill:#fff"/>
  <path id="path134" d="m480.16 606.17c0-4.9488 4.0275-8.9762 8.9762-8.9762 3.0262 0 5.645 1.2962 7.3125 3.8238 0.16875 0.25625 0.0987 0.60125-0.1575 0.76875-0.25625 0.17-0.59875 0.10125-0.77-0.15625-1.4612-2.215-3.7338-3.325-6.385-3.325-4.3362 0-7.8638 3.5275-7.8638 7.865 0 2.6825 1.3475 5.155 3.6038 6.6125 0.25875 0.16625 0.335 0.50875 0.16625 0.7675-0.10625 0.165-0.28125 0.255-0.465 0.255-0.10375 0-0.21-0.0288-0.3-0.0888-2.5788-1.6625-4.1175-4.4825-4.1175-7.5462" style="fill:#fff"/>
  <path id="path138" d="m489.02 594.45c-0.305 0-0.55625-0.25-0.55625-0.55625v-4.4375c0-0.30625 0.25125-0.55375 0.55625-0.55375 0.3075 0 0.555 0.2475 0.555 0.55375v4.4375c0 0.30625-0.2475 0.55625-0.555 0.55625" style="fill:#fff"/>
  <path id="path142" d="m482.94 596.17c-0.0913 0.0575-0.19125 0.0838-0.29 0.0838-0.18625 0-0.37-0.0925-0.475-0.2625l-2.335-3.7738c-0.16125-0.26-0.0813-0.6025 0.18-0.76375 0.26125-0.1625 0.6025-0.0812 0.765 0.17875l2.3362 3.7738c0.15875 0.26125 0.08 0.60375-0.18125 0.76375" style="fill:#fff"/>
  <path id="path146" d="m478.35 600.85c-0.0875 0-0.17875-0.0213-0.26125-0.0662l-3.915-2.095c-0.27125-0.14625-0.3725-0.4825-0.22625-0.7525 0.14375-0.27 0.48-0.37125 0.75125-0.2275l3.9125 2.0962c0.2725 0.145 0.375 0.48125 0.23125 0.7525-0.1025 0.18625-0.29625 0.2925-0.4925 0.2925" style="fill:#fff"/>
  <path id="path150" d="m472.48 605.4h2e-3l4.4388 0.0125c0.3075 1e-3 0.555 0.25 0.555 0.5575-2e-3 0.30625-0.25 0.55375-0.555 0.55375h-2e-3l-4.4388-0.0137c-0.3075-1e-3 -0.555-0.25125-0.555-0.5575 2e-3 -0.30625 0.25-0.5525 0.555-0.5525" style="fill:#fff"/>
  <path id="path154" d="m474.23 613.44 3.8962-2.13c0.26875-0.1475 0.60875-0.0487 0.75625 0.22 0.14625 0.27 0.0462 0.6075-0.22 0.755l-3.9 2.1288c-0.0838 0.0475-0.17625 0.0688-0.26625 0.0688-0.19375 0-0.38875-0.10375-0.49-0.28875-0.14375-0.27-0.0463-0.6075 0.22375-0.75375" style="fill:#fff"/>
  <path id="path158" d="m503.81 598.54-3.8988 2.13c-0.0863 0.0463-0.17625 0.0675-0.26625 0.0675-0.19625 0-0.38625-0.105-0.4875-0.28875-0.14625-0.26875-0.0488-0.6075 0.2225-0.755l3.895-2.1288c0.26875-0.1475 0.60875-0.0488 0.755 0.22 0.1475 0.26875 0.05 0.60625-0.22 0.755" style="fill:#fff"/>
  <path id="path162" d="m482.13 615.96c0.16375-0.26125 0.50375-0.34 0.765-0.1775 0.25875 0.1625 0.34 0.505 0.17625 0.7675l-2.355 3.765c-0.10375 0.1675-0.2875 0.26125-0.47125 0.26125-0.0975 0-0.20125-0.0288-0.29125-0.085-0.26125-0.1625-0.3425-0.50625-0.18-0.765z" style="fill:#fff"/>
  <path id="path166" d="m495.91 596.01c-0.1025 0.1675-0.285 0.26-0.47 0.26-0.10125 0-0.20125-0.0263-0.2925-0.0825-0.26-0.165-0.33875-0.5075-0.17875-0.7675l2.3588-3.765c0.16125-0.26 0.50125-0.34 0.765-0.17625 0.25875 0.16125 0.3375 0.505 0.17625 0.765z" style="fill:#fff"/>
  <path id="path174" d="m395.51 619.84h18.582c0.125 0 0.25375 0 0.37375 0.0138v-0.0138c3.0375 0 5.505-2.47 5.505-5.505s-2.4675-5.5062-5.505-5.5062c-0.4275 0-0.875 0.0575-1.3275 0.16875-0.1475 0.035-0.30375 9e-3 -0.42875-0.075-0.125-0.0825-0.21-0.21625-0.23625-0.36625-0.61375-3.9162-3.9375-6.76-7.9012-6.76-4.4188 0-8.0125 3.5938-8.0125 8.0112 0 0.2175 0.0163 0.43 0.0313 0.6425 0.0163 0.16125-0.0437 0.32-0.16125 0.4325-0.1125 0.1125-0.2725 0.165-0.43375 0.15125-0.16-0.0187-0.32-0.0275-0.48625-0.0275-2.4362 0-4.4188 1.9812-4.4188 4.4162 0 2.4362 1.9825 4.4175 4.4188 4.4175m-0.03-9.915v-0.1175c0-5.0138 4.0788-9.0925 9.0925-9.0925 4.31 0 7.9525 2.9625 8.8662 7.1188 0.34875-0.0563 0.6925-0.0838 1.0275-0.0838 3.6312 0 6.5862 2.9538 6.5862 6.585 0 3.63-2.955 6.585-6.5862 6.585h-4e-3l-18.953 1e-4c-3.0325 0-5.4975-2.4662-5.4975-5.4975 0-3.0212 2.45-5.4812 5.4675-5.4975" style="fill:#fff"/>
  <path id="path178" d="m384.75 604.47c0-4.815 3.9162-8.7325 8.73-8.7325 2.945 0 5.4938 1.26 7.1188 3.7212 0.1625 0.2475 0.095 0.58375-0.155 0.7475-0.25 0.16625-0.5825 0.0975-0.74875-0.1525-1.4238-2.155-3.635-3.235-6.215-3.235-4.2162 0-7.65 3.4325-7.65 7.6512 0 2.6112 1.3125 5.0175 3.5088 6.4338 0.24875 0.1625 0.32375 0.49625 0.16125 0.7475-0.10125 0.16125-0.2775 0.24875-0.455 0.24875-0.1 0-0.20375-0.0288-0.29375-0.0863-2.5038-1.6188-4.0012-4.3638-4.0012-7.3438" style="fill:#fff"/>
  <path id="path182" d="m393.36 593.07c-0.3 0-0.54125-0.2425-0.54125-0.54125v-4.3175c0-0.29875 0.24125-0.54 0.54125-0.54 0.2975 0 0.53875 0.24125 0.53875 0.54v4.3175c0 0.29875-0.24125 0.54125-0.53875 0.54125" style="fill:#fff"/>
  <path id="path186" d="m387.45 594.75c-0.0875 0.0537-0.185 0.0812-0.285 0.0812-0.18 0-0.35625-0.09-0.46-0.25625l-2.2712-3.67c-0.155-0.25375-0.0775-0.5875 0.17625-0.74375 0.25625-0.1575 0.58625-0.0787 0.745 0.17375l2.2688 3.6712c0.16125 0.25375 0.0825 0.5875-0.17375 0.74375" style="fill:#fff"/>
  <path id="path190" d="m382.98 599.29c-0.085 0-0.17375-0.0213-0.25375-0.0637l-3.8075-2.04c-0.265-0.14-0.365-0.4675-0.22125-0.73125 0.13875-0.2625 0.46625-0.36125 0.73-0.22125l3.8088 2.04c0.26375 0.14 0.365 0.4675 0.2225 0.73-0.0975 0.1825-0.285 0.28625-0.47875 0.28625" style="fill:#fff"/>
  <path id="path194" d="m377.27 603.73h4e-3l4.3175 0.0125c0.2975 0 0.54375 0.24375 0.54125 0.54125-3e-3 0.29875-0.24375 0.54-0.54125 0.54h-3e-3l-4.3212-0.0137c-0.29625 0-0.5375-0.24375-0.5375-0.54125 0-0.29875 0.24375-0.53875 0.54-0.53875" style="fill:#fff"/>
  <path id="path198" d="m378.97 611.54 3.795-2.0725c0.26125-0.1425 0.59-0.0463 0.7325 0.215 0.14125 0.2625 0.0462 0.59125-0.215 0.73375l-3.795 2.0738c-0.08 0.0438-0.16875 0.065-0.25625 0.065-0.19125 0-0.375-0.10125-0.47625-0.28125-0.1425-0.26125-0.0437-0.59125 0.215-0.73375" style="fill:#fff"/>
  <path id="path202" d="m407.75 597.04-3.7925 2.0738c-0.0838 0.045-0.17125 0.0662-0.25875 0.0662-0.19 0-0.375-0.10125-0.47375-0.2825-0.14125-0.26125-0.0462-0.59 0.215-0.7325l3.7925-2.0712c0.26125-0.14625 0.59-0.0487 0.7325 0.215 0.1425 0.26125 0.0487 0.58875-0.215 0.73125" style="fill:#fff"/>
  <path id="path206" d="m386.66 614c0.1575-0.25375 0.49125-0.33125 0.745-0.1725 0.25125 0.15875 0.3275 0.49125 0.1675 0.745l-2.29 3.665c-0.1 0.16375-0.27875 0.25375-0.4575 0.25375-0.0975 0-0.19625-0.0275-0.28375-0.0825-0.25375-0.15875-0.33125-0.4925-0.17375-0.745z" style="fill:#fff"/>
  <path id="path210" d="m400.07 594.59c-0.1025 0.1625-0.27875 0.25375-0.4575 0.25375-0.0975 0-0.19625-0.0262-0.2875-0.0825-0.25375-0.15875-0.3275-0.4925-0.17-0.745l2.2925-3.665c0.1575-0.2525 0.49125-0.33 0.74375-0.17125 0.25125 0.1575 0.32875 0.49125 0.17125 0.74375z" style="fill:#fff"/>
  <path id="path214" d="m106.08 707.79c0.0425-0.085 0.0613-0.175 0.065-0.265m9.1875 0.265c0.0425-0.085 0.0625-0.17375 0.0663-0.26375" style="fill:#fff"/>
  <path id="path218" d="m489.24 706.2h22.702c0.15125 0 0.30875 0 0.45625 0.0163v-0.0163c3.7075 0 6.725-3.0162 6.725-6.7238 0-3.7088-3.0175-6.725-6.725-6.725-0.52625 0-1.0725 0.0687-1.6225 0.20375-0.18 0.045-0.36875 0.0125-0.52375-0.09s-0.2575-0.265-0.2875-0.4475c-0.75125-4.7862-4.8125-8.26-9.655-8.26-5.3962 0-9.7875 4.39-9.7875 9.7875 0 0.265 0.02 0.5275 0.0413 0.7875 0.015 0.195-0.0575 0.38875-0.1975 0.52625s-0.3375 0.20375-0.53 0.18375c-0.19625-0.0213-0.395-0.0337-0.59625-0.0337-2.975 0-5.3962 2.42-5.3962 5.395s2.4212 5.3962 5.3962 5.3962m-0.0362-12.112c0-0.0475-1e-3 -0.095-1e-3 -0.1425 0-6.125 4.9825-11.108 11.108-11.108 5.2662 0 9.7162 3.6175 10.832 8.6962 0.42375-0.0687 0.84375-0.10375 1.2562-0.10375 4.4362 0 8.045 3.6088 8.045 8.0462 0 4.435-3.6088 8.045-8.0488 8.045h-23.155c-3.7025 0-6.7162-3.0138-6.7162-6.7175 0-3.6912 2.9925-6.695 6.68-6.7162" style="fill:#fff"/>
  <path id="path222" d="m481.16 686.98c0.4125 0 0.83375 0.035 1.2562 0.10375 1.1162-5.0788 5.5662-8.6975 10.832-8.6975 2.2925 0 4.4938 0.69375 6.365 2.005 0.29875 0.21 0.37125 0.6225 0.1625 0.92-0.21125 0.29875-0.62125 0.37125-0.92125 0.1625-1.6475-1.1562-3.5862-1.7662-5.6062-1.7662-4.8425 0-8.9038 3.4738-9.655 8.26-0.03 0.18375-0.13375 0.345-0.2875 0.4475-0.1525 0.1025-0.3425 0.135-0.525 0.0913-0.54875-0.1375-1.095-0.205-1.6212-0.205-3.7075 0-6.725 3.0162-6.725 6.725 0 3.4575 2.59 6.3338 6.025 6.6875 0.36375 0.0387 0.6275 0.3625 0.59 0.725-0.035 0.34-0.3225 0.5925-0.65625 0.5925-0.0225 0-0.0463-1e-3 -0.0688-2e-3 -4.11-0.425-7.21-3.865-7.21-8.0025 0-4.4375 3.6088-8.0462 8.045-8.0462" style="fill:#fff"/>
  <path id="path230" d="m202.95 716.59c-0.1725-0.1725-0.45-0.1725-0.62125 0l-0.47625 0.475-0.4775-0.475c-0.17-0.1725-0.4475-0.1725-0.61875 0-0.1725 0.17-0.1725 0.4475 0 0.62l0.475 0.47625-0.475 0.47625c-0.1725 0.17125-0.1725 0.44875 0 0.62125 0.085 0.085 0.19625 0.1275 0.30875 0.1275s0.22375-0.0425 0.31-0.1275l0.4775-0.4775 0.47625 0.4775c0.0862 0.085 0.19875 0.1275 0.31 0.1275 0.11375 0 0.225-0.0425 0.31125-0.1275 0.1725-0.1725 0.1725-0.45 0-0.62125l-0.4775-0.47625 0.4775-0.47625c0.1725-0.1725 0.1725-0.45 0-0.62" style="fill:#fff"/>
  <path id="path234" d="m217.58 716.59c-0.17125-0.1725-0.4475-0.1725-0.61875 0l-0.47875 0.475-0.47625-0.475c-0.17125-0.1725-0.44875-0.1725-0.62 0-0.17375 0.17-0.17375 0.4475 0 0.62l0.47625 0.47625-0.47625 0.47625c-0.17375 0.17125-0.17375 0.44875 0 0.62125 0.085 0.085 0.1975 0.1275 0.31 0.1275 0.11125 0 0.22375-0.0425 0.31-0.1275l0.47625-0.4775 0.47875 0.4775c0.085 0.085 0.1975 0.1275 0.31 0.1275s0.22375-0.0425 0.30875-0.1275c0.17125-0.1725 0.17125-0.45 0-0.62125l-0.4775-0.47625 0.4775-0.47625c0.17125-0.1725 0.17125-0.45 0-0.62" style="fill:#fff"/>
  <path id="path242" d="m392.92 703.97h21.11c0.14 0 0.28625 0 0.42375 0.015v-0.015c3.4475 0 6.2525-2.805 6.2525-6.2525 0-3.4488-2.805-6.2525-6.2525-6.2525-0.49 0-0.99625 0.0637-1.5075 0.18875-0.1675 0.0425-0.345 0.0125-0.48875-0.0825-0.1425-0.0962-0.24-0.2475-0.26625-0.41625-0.69875-4.4512-4.475-7.68-8.98-7.68-5.0162 0-9.0988 4.0812-9.0988 9.0988 0 0.2475 0.0188 0.49125 0.0375 0.73375 0.0137 0.18125-0.0538 0.36125-0.18375 0.4875-0.13125 0.12875-0.3125 0.19125-0.49375 0.17125-0.18125-0.0187-0.36625-0.0313-0.5525-0.0313-2.7675 0-5.0188 2.2512-5.0188 5.0175s2.2512 5.0175 5.0188 5.0175m-0.0337-11.262c0-0.0437-1e-3 -0.0888-1e-3 -0.13375 0-5.695 4.6338-10.328 10.326-10.328 4.8988 0 9.0375 3.3638 10.074 8.0862 0.39375-0.0637 0.785-0.0962 1.1688-0.0962 4.1238 0 7.4812 3.3562 7.4812 7.4812s-3.3575 7.48-7.485 7.48h-21.53c-3.4438 0-6.2462-2.8012-6.2462-6.245 0-3.4325 2.7838-6.2275 6.2125-6.245" style="fill:#fff"/>
  <path id="path246" d="m385.4 686.1c0.385 0 0.775 0.0325 1.17 0.0962 1.0375-4.7225 5.175-8.0862 10.071-8.0862 2.1312 0 4.1788 0.645 5.92 1.8638 0.27625 0.19375 0.34375 0.5775 0.15 0.855-0.1975 0.2775-0.57625 0.345-0.85625 0.15125-1.5325-1.075-3.335-1.6438-5.2138-1.6438-4.5025 0-8.2788 3.2312-8.9762 7.6825-0.0288 0.17-0.125 0.32-0.26875 0.41625-0.1425 0.095-0.3175 0.125-0.4875 0.085-0.51-0.1275-1.0175-0.1925-1.5088-0.1925-3.4462 0-6.2525 2.8062-6.2525 6.2538 0 3.2162 2.41 5.89 5.6025 6.2188 0.3375 0.0362 0.5825 0.3375 0.54875 0.675-0.0325 0.31625-0.29875 0.55-0.61 0.55-0.0225 0-0.0437-1e-3 -0.065-2e-3 -3.8212-0.395-6.7038-3.5938-6.7038-7.4412 0-4.125 3.355-7.4812 7.48-7.4812" style="fill:#fff"/>
  <path id="path250" d="m199.63 709.27c-0.30375-0.15125-0.6725-0.0288-0.82375 0.27375l-4.1375 8.2738c-0.1525 0.305-0.0287 0.6725 0.275 0.825 0.0875 0.0438 0.18125 0.0637 0.27375 0.0637 0.225 0 0.44125-0.1225 0.54875-0.33875l4.1375-8.2738c0.1525-0.30375 0.0288-0.6725-0.27375-0.82375" style="fill:#fff"/>
  <path id="path258" d="m213.43 709.27c-0.3025-0.15125-0.67125-0.0288-0.82375 0.27375l-4.1362 8.2738c-0.1525 0.305-0.0288 0.6725 0.27375 0.825 0.0875 0.0438 0.18125 0.0637 0.275 0.0637 0.225 0 0.44-0.1225 0.54875-0.33875l4.1375-8.2738c0.1525-0.30375 0.0275-0.6725-0.275-0.82375" style="fill:#fff"/>
  <path id="path266" d="m227.23 709.27c-0.30375-0.15125-0.6725-0.0288-0.825 0.27375l-4.1362 8.2738c-0.15125 0.305-0.0288 0.6725 0.27375 0.825 0.0888 0.0438 0.1825 0.0637 0.275 0.0637 0.225 0 0.44125-0.1225 0.55-0.33875l4.1375-8.2738c0.15125-0.30375 0.0275-0.6725-0.275-0.82375" style="fill:#fff"/>
  <path id="path270" d="m311.14 710.83c-0.325-0.16-0.72-0.03-0.885 0.295l-4.4425 8.8838c-0.16125 0.32625-0.0288 0.72125 0.2975 0.885 0.0937 0.0462 0.195 0.0687 0.2925 0.0687 0.2425 0 0.475-0.1325 0.59125-0.365l4.4412-8.8825c0.1625-0.32625 0.0313-0.7225-0.295-0.885" style="fill:#fff"/>
  <path id="path274" d="m292.89 705.82h22.664c0.15 0 0.30875 0 0.45375 0.0162v-0.0162c3.7025 0 6.715-3.0112 6.715-6.7138s-3.0125-6.715-6.715-6.715c-0.5225 0-1.0675 0.07-1.62 0.20625-0.17625 0.045-0.3675 0.0125-0.5225-0.09-0.15375-0.10375-0.2575-0.265-0.285-0.4475-0.75125-4.7788-4.805-8.2462-9.64-8.2462-5.3875 0-9.77 4.3825-9.77 9.77 0 0.26625 0.0188 0.52625 0.04 0.785 0.0162 0.19625-0.055 0.39-0.1975 0.5275-0.14 0.1375-0.335 0.20375-0.53 0.18375-0.19625-0.0213-0.3925-0.035-0.5925-0.035-2.9712 0-5.3888 2.4162-5.3888 5.3875s2.4175 5.3875 5.3888 5.3875m-0.0375-12.092c0-0.0475-1e-3 -0.095-1e-3 -0.14375 0-6.1138 4.975-11.088 11.089-11.088 5.2575 0 9.7025 3.6112 10.814 8.6812 0.42375-0.0687 0.84375-0.10375 1.2538-0.10375 4.43 0 8.0338 3.6025 8.0338 8.0325 0 4.4275-3.6038 8.0312-8.0362 8.0312h-23.115c-3.6988 0-6.705-3.0075-6.705-6.705 0-3.685 2.9862-6.6862 6.6675-6.705" style="fill:#fff"/>
  <path id="path278" d="m284.81 686.63c0.4125 0 0.83125 0.035 1.2538 0.10375 1.1138-5.0712 5.5575-8.6825 10.815-8.6825 2.29 0 4.4862 0.6925 6.355 2.0012 0.2975 0.20875 0.37 0.62 0.16125 0.91875-0.21 0.2975-0.62 0.37-0.91875 0.16125-1.645-1.1538-3.58-1.7625-5.5975-1.7625-4.835 0-8.8888 3.4675-9.64 8.2462-0.0288 0.1825-0.1325 0.34375-0.28625 0.44625-0.1525 0.1025-0.34375 0.13375-0.52125 0.0913-0.5525-0.13625-1.0962-0.205-1.6212-0.205-3.7012 0-6.7138 3.0125-6.7138 6.7138 0 3.4525 2.5862 6.3238 6.015 6.6775 0.3625 0.0375 0.62625 0.36125 0.58875 0.72375-0.035 0.33875-0.3225 0.59125-0.655 0.59125-0.0238 0-0.045-1e-3 -0.0688-2e-3 -4.1038-0.42375-7.1988-3.86-7.1988-7.99 0-4.4288 3.6038-8.0325 8.0325-8.0325" style="fill:#fff"/>
  <path id="path282" d="m394 711.2c-0.335-0.16625-0.7425-0.0325-0.91125 0.305l-4.5838 9.1688c-0.16875 0.33625-0.0325 0.74375 0.3025 0.9125 0.0975 0.0487 0.2025 0.0712 0.305 0.0712 0.24875 0 0.4875-0.1375 0.6075-0.37625l4.585-9.1688c0.16875-0.33625 0.0325-0.745-0.305-0.9125" style="fill:#fff"/>
  <path id="path286" d="m409.3 711.2c-0.3375-0.16625-0.745-0.0325-0.9125 0.305l-4.585 9.1688c-0.16875 0.33625-0.0325 0.74375 0.3025 0.9125 0.1 0.0487 0.2025 0.0712 0.305 0.0712 0.24875 0 0.48875-0.1375 0.6075-0.37625l4.585-9.1688c0.16875-0.33625 0.0325-0.745-0.3025-0.9125" style="fill:#fff"/>
  <path id="path290" d="m202.18 706.02h23.394c0.15625 0 0.3175 0 0.46875 0.0162v-0.0162c3.82 0 6.9288-3.1088 6.9288-6.93s-3.1088-6.9288-6.9288-6.9288c-0.54 0-1.1038 0.07-1.6725 0.21125-0.18375 0.0463-0.37875 0.0125-0.54-0.0937-0.15875-0.105-0.26625-0.2725-0.295-0.46125-0.77375-4.9312-4.9588-8.5112-9.9488-8.5112-5.5588 0-10.085 4.5238-10.085 10.085 0 0.27375 0.0188 0.54375 0.0412 0.81 0.0188 0.2025-0.0562 0.4025-0.2025 0.54375-0.145 0.1425-0.3475 0.21-0.5475 0.18875-0.2025-0.0213-0.405-0.0337-0.6125-0.0337-3.0662 0-5.5588 2.4938-5.5588 5.56s2.4925 5.56 5.5588 5.56m-0.0362-12.481c-2e-3 -0.0487-2e-3 -0.0987-2e-3 -0.1475 0-6.31 5.1338-11.445 11.445-11.445 5.425 0 10.012 3.7275 11.162 8.9612 0.43625-0.0712 0.87125-0.1075 1.2938-0.1075 4.57 0 8.2912 3.7188 8.2912 8.29s-3.7212 8.29-8.2938 8.29h-23.86c-3.8162 0-6.9212-3.1038-6.9212-6.92 0-3.8038 3.0838-6.9012 6.885-6.9212" style="fill:#fff"/>
  <path id="path294" d="m193.85 686.22c0.425 0 0.8575 0.035 1.2938 0.10625 1.15-5.2338 5.735-8.9612 11.162-8.9612 2.3625 0 4.6312 0.71375 6.56 2.065 0.305 0.21625 0.38125 0.64 0.16625 0.9475-0.2175 0.3075-0.64 0.3825-0.95 0.1675-1.6962-1.1912-3.6938-1.82-5.7762-1.82-4.99 0-9.175 3.58-9.9488 8.5112-0.03 0.18875-0.1375 0.35625-0.295 0.4625-0.16125 0.105-0.355 0.1375-0.5425 0.0925-0.56625-0.14-1.1275-0.21125-1.67-0.21125-3.8212 0-6.9312 3.1088-6.9312 6.93 0 3.5638 2.6712 6.5275 6.2112 6.8925 0.37375 0.0387 0.64375 0.3725 0.605 0.74625-0.0362 0.35-0.33125 0.61-0.67625 0.61-0.0213 0-0.0462-1e-3 -0.07-2e-3 -4.2362-0.4375-7.43-3.9825-7.43-8.2462 0-4.5712 3.7188-8.29 8.2912-8.29" style="fill:#fff"/>
  <path id="path298" d="m492.48 710.52c-0.31625-0.15625-0.70125-0.0288-0.85875 0.28625l-4.3212 8.64c-0.15875 0.3175-0.0288 0.70125 0.2875 0.86 0.0913 0.045 0.18875 0.0675 0.28625 0.0675 0.235 0 0.46125-0.13 0.57375-0.35375l4.3188-8.64c0.15875-0.31625 0.0313-0.70125-0.28625-0.86" style="fill:#fff"/>
  <path id="path302" d="m499.69 710.52c-0.31625-0.15625-0.7025-0.0288-0.86 0.28625l-4.32 8.64c-0.15875 0.3175-0.03 0.70125 0.28625 0.86 0.0925 0.045 0.19 0.0675 0.285 0.0675 0.2375 0 0.4625-0.13 0.575-0.35375l4.32-8.64c0.15875-0.31625 0.03-0.70125-0.28625-0.86" style="fill:#fff"/>
  <path id="path306" d="m506.89 710.52c-0.31625-0.15625-0.70125-0.0288-0.86 0.28625l-4.32 8.64c-0.1575 0.3175-0.03 0.70125 0.2875 0.86 0.0913 0.045 0.18875 0.0675 0.28625 0.0675 0.235 0 0.4625-0.13 0.57375-0.35375l4.3188-8.64c0.15875-0.31625 0.0313-0.70125-0.28625-0.86" style="fill:#fff"/>
  <path id="path310" d="m108.8 705.65h22.042c0.1475 0 0.3 0 0.4425 0.015v-0.015c3.6 0 6.53-2.93 6.53-6.53s-2.93-6.5288-6.53-6.5288c-0.50875 0-1.04 0.0662-1.5738 0.19875-0.175 0.0437-0.36 0.0125-0.51-0.0875s-0.25125-0.2575-0.2775-0.435c-0.73-4.6475-4.6725-8.0188-9.375-8.0188-5.2388 0-9.5025 4.2625-9.5025 9.5012 0 0.25875 0.0188 0.5125 0.0387 0.76375 0.0175 0.19-0.0538 0.37875-0.19 0.5125-0.13625 0.1325-0.3275 0.1975-0.51625 0.17875-0.19-0.0212-0.38375-0.0337-0.57875-0.0337-2.8875 0-5.2375 2.35-5.2375 5.24 0 2.8888 2.35 5.2388 5.2375 5.2388m-0.0337-11.761v-0.13875c0-5.945 4.8362-10.784 10.782-10.784 5.1125 0 9.4338 3.5125 10.518 8.4425 0.4125-0.0662 0.81875-0.10125 1.2188-0.10125 4.3088 0 7.8112 3.505 7.8112 7.8125s-3.5025 7.8112-7.8138 7.8112h-22.482c-3.595 0-6.52-2.925-6.52-6.52 0-3.5862 2.905-6.5038 6.4862-6.5225" style="fill:#fff"/>
  <path id="path314" d="m100.95 686.99c0.4 0 0.8075 0.0325 1.22 0.10125 1.0825-4.9325 5.4038-8.445 10.518-8.445 2.225 0 4.3625 0.67375 6.1788 1.9462 0.29 0.20375 0.36125 0.6025 0.1575 0.89375-0.20375 0.28875-0.6025 0.36-0.8925 0.15625-1.6-1.1212-3.4825-1.7125-5.4438-1.7125-4.7025 0-8.645 3.3712-9.3738 8.0188-0.03 0.17625-0.13125 0.33375-0.28 0.43375-0.15 0.0987-0.33375 0.13125-0.50875 0.0888-0.535-0.1325-1.0638-0.2-1.575-0.2-3.6 0-6.53 2.93-6.53 6.53 0 3.3588 2.515 6.15 5.85 6.4938 0.3525 0.0363 0.60875 0.3525 0.5725 0.70375-0.0338 0.33-0.3125 0.575-0.6375 0.575-0.0213 0-0.0437 0-0.0662-2e-3 -3.9912-0.41125-7-3.7525-7-7.77 0-4.3062 3.5038-7.8112 7.8112-7.8112" style="fill:#fff"/>
  <path id="path318" d="m489.08 801.5c-0.31875-0.1575-0.705-0.03-0.865 0.2875l-4.3462 8.6925c-0.15875 0.3175-0.03 0.705 0.28875 0.865 0.0925 0.0462 0.19125 0.0688 0.2875 0.0688 0.2375 0 0.465-0.13125 0.5775-0.35625l4.3462-8.6938c0.15875-0.3175 0.03-0.705-0.28875-0.86375" style="fill:#fff"/>
  <path id="path322" d="m496.33 801.5c-0.31875-0.1575-0.705-0.03-0.865 0.2875l-4.3462 8.6925c-0.15875 0.3175-0.03 0.705 0.28875 0.865 0.0925 0.0462 0.19 0.0688 0.2875 0.0688 0.23625 0 0.46375-0.13125 0.5775-0.35625l4.345-8.6938c0.16-0.3175 0.0313-0.705-0.2875-0.86375" style="fill:#fff"/>
  <path id="path326" d="m503.58 801.5c-0.3175-0.1575-0.705-0.03-0.865 0.2875l-4.3462 8.6925c-0.15875 0.3175-0.03 0.705 0.28875 0.865 0.0925 0.0462 0.19 0.0688 0.2875 0.0688 0.23625 0 0.465-0.13125 0.5775-0.35625l4.3462-8.6938c0.15875-0.3175 0.03-0.705-0.28875-0.86375" style="fill:#fff"/>
  <path id="path330" d="m510.83 801.5c-0.31875-0.1575-0.705-0.03-0.865 0.2875l-4.3462 8.6925c-0.16 0.3175-0.03 0.705 0.28875 0.865 0.0925 0.0462 0.19 0.0688 0.2875 0.0688 0.23625 0 0.46375-0.13125 0.5775-0.35625l4.345-8.6938c0.16-0.3175 0.0313-0.705-0.2875-0.86375" style="fill:#fff"/>
  <path id="path334" d="m518.08 801.5c-0.31875-0.1575-0.705-0.03-0.865 0.2875l-4.3462 8.6925c-0.15875 0.3175-0.03 0.705 0.28875 0.865 0.0925 0.0462 0.19 0.0688 0.2875 0.0688 0.23625 0 0.465-0.13125 0.5775-0.35625l4.3462-8.6938c0.15875-0.3175 0.03-0.705-0.28875-0.86375" style="fill:#fff"/>
  <path id="path338" d="m491.79 796.6h22.176c0.1475 0 0.30125 0 0.445 0.0162v-0.0162c3.6225 0 6.5688-2.9462 6.5688-6.57 0-3.6212-2.9462-6.5688-6.5688-6.5688-0.5125 0-1.045 0.0675-1.585 0.2-0.175 0.045-0.36 0.0125-0.5125-0.0875-0.15-0.1-0.25125-0.25875-0.28-0.4375-0.73375-4.675-4.7-8.0688-9.4312-8.0688-5.27 0-9.5588 4.2888-9.5588 9.56 0 0.26 0.0175 0.515 0.0388 0.76875 0.0162 0.19125-0.0538 0.38125-0.1925 0.515-0.1375 0.135-0.32875 0.19875-0.52 0.18-0.19-0.0213-0.38375-0.0337-0.58-0.0337-2.9062 0-5.27 2.365-5.27 5.2712s2.3638 5.2712 5.27 5.2712m-0.035-11.832c-1e-3 -0.0462-1e-3 -0.0925-1e-3 -0.14 0-5.9812 4.8675-10.85 10.849-10.85 5.145 0 9.4925 3.5338 10.581 8.4962 0.415-0.0688 0.825-0.1025 1.2275-0.1025 4.3325 0 7.8588 3.525 7.8588 7.8588s-3.5262 7.8588-7.8625 7.8588h-22.618c-3.6175 0-6.5612-2.9425-6.5612-6.56 0-3.6062 2.925-6.5425 6.5262-6.5612" style="fill:#fff"/>
  <path id="path342" d="m483.89 777.82c0.4025 0 0.8125 0.0337 1.2262 0.10125 1.09-4.9625 5.4375-8.495 10.581-8.495 2.2412 0 4.39 0.67625 6.2175 1.9588 0.2925 0.20375 0.3625 0.605 0.15875 0.89625-0.205 0.2925-0.60625 0.3625-0.89875 0.15875-1.6088-1.1275-3.5038-1.725-5.4775-1.725-4.73 0-8.6975 3.3938-9.4312 8.0688-0.0275 0.17875-0.12875 0.3375-0.28 0.4375-0.15 0.1-0.335 0.13125-0.51125 0.0888-0.53875-0.1325-1.0712-0.2-1.585-0.2-3.6225 0-6.5688 2.9475-6.5688 6.5688 0 3.3788 2.53 6.1875 5.885 6.5338 0.355 0.0362 0.6125 0.35375 0.57625 0.7075-0.035 0.3325-0.315 0.57875-0.64125 0.57875-0.0225 0-0.045-1e-3 -0.0675-2e-3 -4.015-0.415-7.0438-3.775-7.0438-7.8175 0-4.3338 3.5262-7.8588 7.86-7.8588" style="fill:#fff"/>
  <path id="path346" d="m386.81 801.5c-0.31875-0.1575-0.705-0.03-0.865 0.2875l-4.3462 8.6925c-0.15875 0.3175-0.03 0.705 0.28875 0.865 0.0925 0.0462 0.19125 0.0688 0.2875 0.0688 0.2375 0 0.465-0.13125 0.5775-0.35625l4.3462-8.6938c0.15875-0.3175 0.03-0.705-0.28875-0.86375" style="fill:#fff"/>
  <path id="path350" d="m394.06 801.5c-0.31875-0.1575-0.705-0.03-0.865 0.2875l-4.3462 8.6925c-0.15875 0.3175-0.03 0.705 0.28875 0.865 0.0925 0.0462 0.19 0.0688 0.2875 0.0688 0.23625 0 0.46375-0.13125 0.5775-0.35625l4.345-8.6938c0.16-0.3175 0.0313-0.705-0.2875-0.86375" style="fill:#fff"/>
  <path id="path354" d="m401.31 801.5c-0.3175-0.1575-0.705-0.03-0.865 0.2875l-4.3462 8.6925c-0.15875 0.3175-0.03 0.705 0.28875 0.865 0.0925 0.0462 0.19 0.0688 0.2875 0.0688 0.23625 0 0.465-0.13125 0.5775-0.35625l4.3462-8.6938c0.15875-0.3175 0.03-0.705-0.28875-0.86375" style="fill:#fff"/>
  <path id="path358" d="m408.56 801.5c-0.31875-0.1575-0.705-0.03-0.865 0.2875l-4.3462 8.6925c-0.16 0.3175-0.03 0.705 0.28875 0.865 0.0925 0.0462 0.19 0.0688 0.2875 0.0688 0.23625 0 0.46375-0.13125 0.5775-0.35625l4.345-8.6938c0.16-0.3175 0.0313-0.705-0.2875-0.86375" style="fill:#fff"/>
  <path id="path362" d="m415.81 801.5c-0.31875-0.1575-0.705-0.03-0.865 0.2875l-4.3462 8.6925c-0.15875 0.3175-0.03 0.705 0.28875 0.865 0.0925 0.0462 0.19 0.0688 0.2875 0.0688 0.23625 0 0.465-0.13125 0.5775-0.35625l4.3462-8.6938c0.15875-0.3175 0.03-0.705-0.28875-0.86375" style="fill:#fff"/>
  <path id="path366" d="m422.77 801.5c-0.31875-0.1575-0.705-0.03-0.865 0.2875l-4.3462 8.6925c-0.15875 0.3175-0.03 0.705 0.28875 0.865 0.0925 0.0462 0.19 0.0688 0.2875 0.0688 0.23625 0 0.465-0.13125 0.5775-0.35625l4.3462-8.6938c0.15875-0.3175 0.03-0.705-0.28875-0.86375" style="fill:#fff"/>
  <path id="path370" d="m392.48 796.6h22.176c0.1475 0 0.30125 0 0.445 0.0162v-0.0162c3.6225 0 6.5688-2.9462 6.5688-6.57 0-3.6212-2.9462-6.5688-6.5688-6.5688-0.5125 0-1.045 0.0675-1.585 0.2-0.175 0.045-0.36 0.0125-0.5125-0.0875-0.15-0.1-0.25125-0.25875-0.28-0.4375-0.73375-4.675-4.7-8.0688-9.4312-8.0688-5.27 0-9.5588 4.2888-9.5588 9.56 0 0.26 0.0175 0.515 0.0387 0.76875 0.0162 0.19125-0.0538 0.38125-0.1925 0.515-0.1375 0.135-0.32875 0.19875-0.52 0.18-0.19-0.0213-0.38375-0.0337-0.58-0.0337-2.9062 0-5.27 2.365-5.27 5.2712s2.3638 5.2712 5.27 5.2712m-0.035-11.832c-1e-3 -0.0462-1e-3 -0.0925-1e-3 -0.14 0-5.9812 4.8675-10.85 10.849-10.85 5.145 0 9.4925 3.5338 10.581 8.4962 0.415-0.0688 0.825-0.1025 1.2275-0.1025 4.3325 0 7.8588 3.525 7.8588 7.8588s-3.5262 7.8588-7.8625 7.8588h-22.618c-3.6175 0-6.5612-2.9425-6.5612-6.56 0-3.6062 2.925-6.5425 6.5262-6.5612" style="fill:#fff"/>
  <path id="path374" d="m384.58 777.82c0.4025 0 0.8125 0.0337 1.2262 0.10125 1.09-4.9625 5.4375-8.495 10.581-8.495 2.2412 0 4.39 0.67625 6.2175 1.9588 0.2925 0.20375 0.3625 0.605 0.15875 0.89625-0.205 0.2925-0.60625 0.3625-0.89875 0.15875-1.6088-1.1275-3.5038-1.725-5.4775-1.725-4.73 0-8.6975 3.3938-9.4312 8.0688-0.0275 0.17875-0.12875 0.3375-0.28 0.4375-0.15 0.1-0.335 0.13125-0.51125 0.0888-0.53875-0.1325-1.0712-0.2-1.585-0.2-3.6225 0-6.5688 2.9475-6.5688 6.5688 0 3.3788 2.53 6.1875 5.885 6.5338 0.355 0.0362 0.6125 0.35375 0.57625 0.7075-0.035 0.3325-0.315 0.57875-0.64125 0.57875-0.0225 0-0.045-1e-3 -0.0675-2e-3 -4.015-0.415-7.0438-3.775-7.0438-7.8175 0-4.3338 3.5262-7.8588 7.86-7.8588" style="fill:#fff"/>
  <path id="path378" d="m282.08 801.5c-0.31875-0.1575-0.705-0.03-0.865 0.2875l-4.3462 8.6925c-0.15875 0.3175-0.03 0.705 0.28875 0.865 0.0925 0.0462 0.19125 0.0688 0.2875 0.0688 0.2375 0 0.465-0.13125 0.5775-0.35625l4.3462-8.6938c0.15875-0.3175 0.03-0.705-0.28875-0.86375" style="fill:#fff"/>
  <path id="path382" d="m289.33 801.5c-0.31875-0.1575-0.705-0.03-0.865 0.2875l-4.3462 8.6925c-0.15875 0.3175-0.03 0.705 0.28875 0.865 0.0925 0.0462 0.19 0.0688 0.2875 0.0688 0.23625 0 0.46375-0.13125 0.5775-0.35625l4.345-8.6938c0.16-0.3175 0.0313-0.705-0.2875-0.86375" style="fill:#fff"/>
  <path id="path386" d="m296.57 801.5c-0.3175-0.1575-0.705-0.03-0.865 0.2875l-4.3462 8.6925c-0.15875 0.3175-0.03 0.705 0.28875 0.865 0.0925 0.0462 0.19 0.0688 0.2875 0.0688 0.23625 0 0.465-0.13125 0.5775-0.35625l4.3462-8.6938c0.15875-0.3175 0.03-0.705-0.28875-0.86375" style="fill:#fff"/>
  <path id="path390" d="m303.82 801.5c-0.31875-0.1575-0.705-0.03-0.865 0.2875l-4.3462 8.6925c-0.16 0.3175-0.03 0.705 0.28875 0.865 0.0925 0.0462 0.19 0.0688 0.2875 0.0688 0.23625 0 0.46375-0.13125 0.5775-0.35625l4.345-8.6938c0.16-0.3175 0.0313-0.705-0.2875-0.86375" style="fill:#fff"/>
  <path id="path394" d="m311.07 801.5c-0.31875-0.1575-0.705-0.03-0.865 0.2875l-4.3462 8.6925c-0.15875 0.3175-0.03 0.705 0.28875 0.865 0.0925 0.0462 0.19 0.0688 0.2875 0.0688 0.23625 0 0.465-0.13125 0.5775-0.35625l4.3462-8.6938c0.15875-0.3175 0.03-0.705-0.28875-0.86375" style="fill:#fff"/>
  <path id="path398" d="m318.03 801.5c-0.31875-0.1575-0.705-0.03-0.865 0.2875l-4.3462 8.6925c-0.15875 0.3175-0.03 0.705 0.28875 0.865 0.0925 0.0462 0.19 0.0688 0.2875 0.0688 0.23625 0 0.465-0.13125 0.5775-0.35625l4.3462-8.6938c0.15875-0.3175 0.03-0.705-0.28875-0.86375" style="fill:#fff"/>
  <path id="path402" d="m323.67 801.5c-0.31875-0.1575-0.705-0.03-0.865 0.2875l-4.3462 8.6925c-0.15875 0.3175-0.03 0.705 0.28875 0.865 0.0925 0.0462 0.19 0.0688 0.2875 0.0688 0.23625 0 0.465-0.13125 0.5775-0.35625l4.3462-8.6938c0.15875-0.3175 0.03-0.705-0.28875-0.86375" style="fill:#fff"/>
  <path id="path406" d="m293.05 796.6h22.176c0.1475 0 0.30125 0 0.445 0.0162v-0.0162c3.6225 0 6.5688-2.9462 6.5688-6.57 0-3.6212-2.9462-6.5688-6.5688-6.5688-0.5125 0-1.045 0.0675-1.585 0.2-0.175 0.045-0.36 0.0125-0.5125-0.0875-0.15-0.1-0.25125-0.25875-0.28-0.4375-0.73375-4.675-4.7-8.0688-9.4312-8.0688-5.27 0-9.5588 4.2888-9.5588 9.56 0 0.26 0.0175 0.515 0.0387 0.76875 0.0163 0.19125-0.0537 0.38125-0.1925 0.515-0.1375 0.135-0.32875 0.19875-0.52 0.18-0.19-0.0213-0.38375-0.0337-0.58-0.0337-2.9062 0-5.27 2.365-5.27 5.2712s2.3638 5.2712 5.27 5.2712m-0.035-11.832c-1e-3 -0.0462-1e-3 -0.0925-1e-3 -0.14 0-5.9812 4.8675-10.85 10.849-10.85 5.145 0 9.4925 3.5338 10.581 8.4962 0.415-0.0688 0.825-0.1025 1.2275-0.1025 4.3325 0 7.8588 3.525 7.8588 7.8588s-3.5262 7.8588-7.8625 7.8588h-22.618c-3.6175 0-6.5612-2.9425-6.5612-6.56 0-3.6062 2.925-6.5425 6.5262-6.5612" style="fill:#fff"/>
  <path id="path410" d="m285.15 777.82c0.4025 0 0.8125 0.0337 1.2262 0.10125 1.09-4.9625 5.4375-8.495 10.581-8.495 2.2412 0 4.39 0.67625 6.2175 1.9588 0.2925 0.20375 0.3625 0.605 0.15875 0.89625-0.205 0.2925-0.60625 0.3625-0.89875 0.15875-1.6088-1.1275-3.5038-1.725-5.4775-1.725-4.73 0-8.6975 3.3938-9.4312 8.0688-0.0275 0.17875-0.12875 0.3375-0.28 0.4375-0.15 0.1-0.335 0.13125-0.51125 0.0888-0.53875-0.1325-1.0712-0.2-1.585-0.2-3.6225 0-6.5688 2.9475-6.5688 6.5688 0 3.3788 2.53 6.1875 5.885 6.5338 0.355 0.0362 0.6125 0.35375 0.57625 0.7075-0.035 0.3325-0.315 0.57875-0.64125 0.57875-0.0225 0-0.045-1e-3 -0.0675-2e-3 -4.015-0.415-7.0438-3.775-7.0438-7.8175 0-4.3338 3.5262-7.8588 7.86-7.8588" style="fill:#fff"/>
  <path id="path438" d="m206.24 801.2 19.921-1e-3c0.1325 0 0.26875 0 0.39875 0.015v-0.0138c3.2525 0 5.9012-2.6475 5.9012-5.9012s-2.6488-5.9-5.9012-5.9c-0.46 0-0.93875 0.0587-1.425 0.17875-0.1575 0.0375-0.325 0.01-0.46-0.08-0.13375-0.09-0.22625-0.2325-0.25125-0.3925-0.65875-4.1988-4.2212-7.2462-8.47-7.2462-4.7362 0-8.5888 3.8512-8.5888 8.5862 0 0.23375 0.0175 0.46375 0.0362 0.69125 0.0138 0.1725-0.05 0.34125-0.1725 0.46125-0.12375 0.12125-0.29625 0.17875-0.46625 0.16125-0.1725-0.0163-0.345-0.0288-0.5225-0.0288-2.6112 0-4.735 2.1238-4.735 4.7338 0 2.6112 2.1238 4.7362 4.735 4.7362m-0.0313-10.629c0-0.0425-2e-3 -0.0838-2e-3 -0.12625 0-5.3725 4.3725-9.7438 9.7475-9.7438 4.62 0 8.525 3.1738 9.5038 7.6288 0.3725-0.06 0.7425-0.0913 1.1025-0.0913 3.8912 0 7.0588 3.1675 7.0588 7.06s-3.1675 7.0588-7.0588 7.0588h-20.32c-3.25 0-5.8938-2.6438-5.8938-5.8938 0-3.2388 2.6262-5.875 5.8625-5.8925" style="fill:#fff"/>
  <path id="path442" d="m194.71 784.72c0-5.1612 4.1988-9.3612 9.3612-9.3612 3.155 0 5.8875 1.3525 7.6262 3.9888 0.175 0.26625 0.10375 0.62625-0.16375 0.8025s-0.6275 0.1025-0.80375-0.16375c-1.5238-2.3112-3.895-3.4688-6.6588-3.4688-4.5238 0-8.2012 3.68-8.2012 8.2025 0 2.7988 1.4062 5.3775 3.76 6.8975 0.26875 0.17125 0.3475 0.53 0.1725 0.8-0.11125 0.17125-0.2975 0.265-0.48625 0.265-0.1075 0-0.21625-0.03-0.3125-0.0925-2.6888-1.7338-4.2938-4.675-4.2938-7.87" style="fill:#fff"/>
  <path id="path446" d="m203.95 772.49c-0.32125 0-0.58-0.25875-0.58-0.58v-4.6275c0-0.32 0.25875-0.57875 0.58-0.57875 0.32 0 0.57875 0.25875 0.57875 0.57875v4.6275c0 0.32125-0.25875 0.58-0.57875 0.58" style="fill:#fff"/>
  <path id="path450" d="m197.61 774.29c-0.095 0.0587-0.2 0.0863-0.305 0.0863-0.19375 0-0.38375-0.0962-0.49375-0.2725l-2.435-3.9362c-0.16875-0.2725-0.085-0.62875 0.1875-0.7975 0.2725-0.1675 0.62875-0.0838 0.7975 0.18875l2.4362 3.9338c0.1675 0.2725 0.0838 0.62875-0.1875 0.7975" style="fill:#fff"/>
  <path id="path454" d="m192.82 779.17c-0.0912 0-0.18375-0.0225-0.2725-0.07l-4.0825-2.185c-0.2825-0.15125-0.38875-0.50125-0.23875-0.785 0.15125-0.28 0.50375-0.3875 0.78375-0.23625l4.085 2.1862c0.28 0.15 0.38625 0.50125 0.2375 0.78375-0.10625 0.195-0.305 0.30625-0.5125 0.30625" style="fill:#fff"/>
  <path id="path458" d="m186.7 783.92 4.6312 0.0138c0.31875 0 0.5775 0.26125 0.5775 0.58125-1e-3 0.3175-0.26 0.57625-0.58 0.57625l-4.6312-0.0125c-0.32125-1e-3 -0.58-0.26125-0.57875-0.58125 0-0.32 0.26625-0.57375 0.58125-0.5775" style="fill:#fff"/>
  <path id="path462" d="m188.52 792.3 4.065-2.2212c0.28-0.1525 0.6325-0.05 0.78625 0.23 0.1525 0.28125 0.0487 0.63375-0.23125 0.78625l-4.065 2.2212c-0.0875 0.0487-0.1825 0.0712-0.27625 0.0712-0.205 0-0.405-0.10875-0.51-0.30125-0.15375-0.28125-0.05-0.6325 0.23125-0.78625" style="fill:#fff"/>
  <path id="path466" d="m219.37 776.75-4.0662 2.2225c-0.0888 0.0475-0.1825 0.0713-0.2775 0.0713-0.205 0-0.40375-0.10875-0.50875-0.30125-0.1525-0.28125-0.05-0.6325 0.23125-0.78625l4.065-2.2212c0.28-0.155 0.6325-0.0512 0.7875 0.23 0.1525 0.28125 0.0488 0.6325-0.23125 0.785" style="fill:#fff"/>
  <path id="path470" d="m196.76 794.93c0.17125-0.27125 0.5275-0.35375 0.79875-0.18375 0.27 0.16875 0.35375 0.52625 0.18375 0.7975l-2.4562 3.9288c-0.11 0.175-0.29875 0.2725-0.49125 0.2725-0.105 0-0.21125-0.0288-0.30625-0.0888-0.27125-0.16875-0.355-0.5275-0.185-0.79875l2.4562-3.9275z" style="fill:#fff"/>
  <path id="path474" d="m211.13 774.13c-0.10875 0.17625-0.2975 0.2725-0.49125 0.2725-0.10375 0-0.21125-0.0288-0.3075-0.0888-0.26875-0.16875-0.35125-0.52625-0.1825-0.7975l2.4562-3.9288c0.1675-0.27125 0.52625-0.35375 0.79625-0.18375 0.2725 0.16875 0.35375 0.5275 0.185 0.7975l-2.4562 3.9288z" style="fill:#fff"/>
  <path id="path506" d="m491.87 879.5h22.165c0.1475 0 0.30125 0 0.445 0.015v-0.015c3.62 0 6.5662-2.945 6.5662-6.565 0-3.6212-2.9462-6.5662-6.5662-6.5662-0.51375 0-1.0475 0.0675-1.5838 0.2-0.175 0.0437-0.36125 0.0113-0.5125-0.0888-0.15-0.1-0.2525-0.25875-0.28-0.43625-0.7325-4.6738-4.6988-8.065-9.4262-8.065-5.2688 0-9.5562 4.2862-9.5562 9.5562 0 0.25875 0.02 0.515 0.0413 0.7675 0.0137 0.1925-0.0563 0.38125-0.19375 0.515-0.13625 0.13375-0.32875 0.19875-0.5175 0.17875-0.19125-0.02-0.385-0.0325-0.58125-0.0325-2.905 0-5.2688 2.3638-5.2688 5.2675 0 2.905 2.3638 5.2688 5.2688 5.2688m-0.0362-11.825c0-0.0475-1e-3 -0.0937-1e-3 -0.14 0-5.98 4.8662-10.845 10.845-10.845 5.1412 0 9.4875 3.5312 10.576 8.4912 0.4125-0.0675 0.82375-0.1025 1.2262-0.1025 4.3312 0 7.855 3.525 7.855 7.8562s-3.5238 7.855-7.8588 7.855h-22.606c-3.6162 0-6.5575-2.9425-6.5575-6.5588 0-3.6038 2.9212-6.5375 6.5212-6.5562" style="fill:#fff"/>
  <path id="path510" d="m483.98 860.73c0.40375 0 0.81375 0.0337 1.2262 0.10125 1.09-4.9588 5.435-8.4912 10.576-8.4912 2.2388 0 4.3875 0.6775 6.215 1.9575 0.29 0.205 0.36125 0.60625 0.1575 0.8975-0.205 0.2925-0.60625 0.3625-0.89875 0.15875-1.6088-1.1288-3.5012-1.725-5.4738-1.725-4.7275 0-8.6938 3.3925-9.4262 8.065-0.0288 0.18-0.13125 0.3375-0.28125 0.4375-0.14875 0.1-0.33375 0.1325-0.51125 0.0888-0.5375-0.13375-1.0688-0.20125-1.5838-0.20125-3.62 0-6.5662 2.9462-6.5662 6.5662 0 3.3762 2.53 6.1838 5.8838 6.53 0.35375 0.0375 0.61125 0.355 0.575 0.70875-0.035 0.33125-0.315 0.57875-0.64125 0.57875-0.0212 0-0.045-1e-3 -0.0662-4e-3 -4.0138-0.415-7.04-3.7738-7.04-7.8138 0-4.3312 3.5238-7.855 7.855-7.855" style="fill:#fff"/>
  <path id="path530" d="m392.08 880.74h23.62c0.1575 0 0.32125 0 0.475 0.0175v-0.0175c3.8575 0 6.9975-3.1375 6.9975-6.9962s-3.14-6.9975-6.9975-6.9975c-0.5475 0-1.115 0.0725-1.6888 0.215-0.18625 0.045-0.38375 0.0113-0.545-0.095-0.16-0.1075-0.26875-0.27625-0.29875-0.46625-0.78125-4.98-5.0062-8.5938-10.045-8.5938-5.615 0-10.184 4.5688-10.184 10.184 0 0.27625 0.02 0.54875 0.0438 0.81875 0.015 0.20375-0.06 0.40375-0.20625 0.5475-0.14625 0.1425-0.35 0.2125-0.55125 0.19125-0.205-0.0213-0.41-0.035-0.62-0.035-3.0962 0-5.6138 2.5188-5.6138 5.6138s2.5175 5.6138 5.6138 5.6138m-0.0375-12.601c-1e-3 -0.05-1e-3 -0.1-1e-3 -0.14875 0-6.3738 5.1838-11.558 11.556-11.558 5.4788 0 10.11 3.7638 11.27 9.0475 0.44125-0.07 0.87875-0.1075 1.3075-0.1075 4.615 0 8.3712 3.7562 8.3712 8.3712s-3.7562 8.37-8.375 8.37h-24.091c-3.8538 0-6.9875-3.1338-6.9875-6.9875 0-3.84 3.1138-6.9675 6.95-6.9875" style="fill:#fff"/>
  <path id="path534" d="m383.67 860.74c0.43 0 0.8675 0.0362 1.3062 0.1075 1.1625-5.2838 5.7925-9.0488 11.271-9.0488 2.385 0 4.675 0.7225 6.6225 2.0862 0.31125 0.2175 0.385 0.6475 0.16875 0.9575-0.21875 0.31-0.64625 0.38625-0.9575 0.16875-1.715-1.2025-3.7312-1.8388-5.8338-1.8388-5.0388 0-9.265 3.615-10.046 8.595-0.03 0.19125-0.1375 0.35875-0.29875 0.46625-0.15875 0.105-0.35625 0.14-0.545 0.095-0.5725-0.14375-1.14-0.215-1.6875-0.215-3.8575 0-6.9975 3.1388-6.9975 6.9962 0 3.6 2.6962 6.5912 6.27 6.96 0.3775 0.04 0.65125 0.3775 0.6125 0.75375-0.0375 0.35375-0.335 0.6175-0.6825 0.6175-0.0237 0-0.0475-1e-3 -0.0712-4e-3 -4.2762-0.4425-7.5025-4.0212-7.5025-8.3275 0-4.615 3.7562-8.37 8.3712-8.37" style="fill:#fff"/>
  <path id="path542" d="m295.41 885.95c-0.36681 8.8e-4 -0.66291 0.29698-0.66379 0.66379v1.0218h-1.0218c-0.36593 0-0.66292 0.29699-0.6638 0.6638 8.8e-4 0.36681 0.29787 0.66379 0.6638 0.66379h1.0218l-8.9e-4 1.0209c0 0.36593 0.29699 0.66291 0.6638 0.6638 0.18385 0 0.3509-0.0751 0.47022-0.19446 0.12021-0.12021 0.19446-0.28638 0.19357-0.46934l8.9e-4 -1.0209 1.0209-8.8e-4c0.18385 0 0.34914-0.0734 0.46935-0.19357 0.1202-0.12021 0.19445-0.28638 0.19445-0.47023-8.8e-4 -0.36681-0.29787-0.66379-0.6638-0.66379l-1.0209 8.8e-4v-1.0218c0-0.36593-0.29699-0.66291-0.6638-0.66379" style="fill:#fff"/>
  <path id="path562" d="m292.84 880.5h22.826c0.1525 0 0.31 0 0.45875 0.0162v-0.0162c3.7275 0 6.7612-3.0325 6.7612-6.7612s-3.0338-6.7612-6.7612-6.7612c-0.53 0-1.0775 0.0688-1.6312 0.205-0.18 0.045-0.3725 0.0125-0.5275-0.0912-0.155-0.10375-0.26-0.265-0.28875-0.44875-0.755-4.8138-4.8375-8.305-9.7075-8.305-5.4262 0-9.84 4.4138-9.84 9.84 0 0.2675 0.0188 0.53 0.04 0.79125 0.0163 0.1975-0.0562 0.39125-0.1975 0.52875-0.1425 0.14-0.33875 0.20625-0.53375 0.185-0.1975-0.02-0.39625-0.0337-0.59875-0.0337-2.9912 0-5.425 2.4338-5.425 5.425 0 2.9925 2.4338 5.4262 5.425 5.4262m-0.0362-12.179c-1e-3 -0.0475-1e-3 -0.0962-1e-3 -0.14375 0-6.1588 5.01-11.168 11.168-11.168 5.295 0 9.77 3.6362 10.891 8.7438 0.42625-0.07 0.84875-0.10375 1.2638-0.10375 4.46 0 8.0888 3.6288 8.0888 8.0888s-3.6288 8.0888-8.0925 8.0888h-23.281c-3.7238 0-6.7525-3.0288-6.7525-6.7538 0-3.71 3.0088-6.7325 6.7162-6.7525" style="fill:#fff"/>
  <path id="path566" d="m284.7 861.18c0.415 0 0.8375 0.035 1.2638 0.10375 1.1212-5.105 5.5975-8.7438 10.891-8.7438 2.305 0 4.5175 0.6975 6.4 2.0162 0.3 0.21125 0.3725 0.625 0.1625 0.925-0.21125 0.3-0.62375 0.3725-0.92625 0.1625-1.6562-1.1612-3.605-1.7762-5.6362-1.7762-4.87 0-8.9525 3.4938-9.7075 8.3062-0.0288 0.18375-0.13375 0.34625-0.29 0.45-0.1525 0.1025-0.34375 0.135-0.52625 0.0913-0.5525-0.1375-1.1012-0.2075-1.6312-0.2075-3.7275 0-6.7612 3.0338-6.7612 6.7625 0 3.4775 2.605 6.3688 6.0588 6.725 0.36375 0.0387 0.63 0.365 0.5925 0.72875-0.0363 0.34125-0.325 0.59625-0.66 0.59625-0.0238 0-0.0462-1e-3 -0.0688-4e-3 -4.1338-0.4275-7.2512-3.8862-7.2512-8.0462 0-4.4612 3.63-8.09 8.09-8.09" style="fill:#fff"/>
  <path id="path790" d="m106.86 713.05c0 1.1775-0.95875 2.135-2.1362 2.135-1.18 0-2.135-0.9575-2.135-2.135 0-1.1762 0.955-2.135 2.135-2.135 1.1775 0 2.1362 0.95875 2.1362 2.135" style="fill:#fff"/>
  <path id="path794" d="m102.31 720.91c0 1.1775-0.95875 2.135-2.1362 2.135-1.18 0-2.135-0.9575-2.135-2.135 0-1.1762 0.955-2.135 2.135-2.135 1.1775 0 2.1362 0.95875 2.1362 2.135" style="fill:#fff"/>
  <path id="path798" d="m118.76 713.05c0 1.1775-0.95875 2.135-2.1362 2.135-1.18 0-2.135-0.9575-2.135-2.135 0-1.1762 0.955-2.135 2.135-2.135 1.1775 0 2.1362 0.95875 2.1362 2.135" style="fill:#fff"/>
  <path id="path802" d="m114.21 720.91c0 1.1775-0.95875 2.135-2.1362 2.135-1.18 0-2.135-0.9575-2.135-2.135 0-1.1762 0.955-2.135 2.135-2.135 1.1775 0 2.1362 0.95875 2.1362 2.135" style="fill:#fff"/>
  <path id="path806" d="m130.56 713.05c0 1.1775-0.95875 2.135-2.1362 2.135-1.18 0-2.135-0.9575-2.135-2.135 0-1.1762 0.955-2.135 2.135-2.135 1.1775 0 2.1362 0.95875 2.1362 2.135" style="fill:#fff"/>
  <path id="path810" d="m126.01 720.91c0 1.1775-0.95875 2.135-2.1362 2.135-1.18 0-2.135-0.9575-2.135-2.135 0-1.1762 0.955-2.135 2.135-2.135 1.1775 0 2.1362 0.95875 2.1362 2.135" style="fill:#fff"/>
  <path id="path6203" d="m409.47 625.82c-0.27375-0.13875-0.6075-0.0263-0.7475 0.2475l-1.9838 3.9475c-0.13625 0.275-0.025 0.60875 0.24625 0.745 0.08 0.04 0.16625 0.06 0.25125 0.06 0.20375 0 0.3975-0.11125 0.49625-0.30625l1.9825-3.9488c0.14125-0.2725 0.03-0.6075-0.245-0.745" style="fill:#fff"/>
  <path id="path3150" d="m311.41 885.95c-0.36681 8.8e-4 -0.66291 0.29698-0.66379 0.66379v1.0218h-1.0218c-0.36593 0-0.66292 0.29699-0.6638 0.6638 8.8e-4 0.36681 0.29787 0.66379 0.6638 0.66379h1.0218l-8.9e-4 1.0209c0 0.36593 0.29699 0.66291 0.6638 0.6638 0.18385 0 0.3509-0.0751 0.47022-0.19446 0.12021-0.12021 0.19446-0.28638 0.19357-0.46934l8.9e-4 -1.0209 1.0209-8.8e-4c0.18385 0 0.34914-0.0734 0.46935-0.19357 0.1202-0.12021 0.19445-0.28638 0.19445-0.47023-8.8e-4 -0.36681-0.29787-0.66379-0.6638-0.66379l-1.0209 8.8e-4v-1.0218c0-0.36593-0.29699-0.66291-0.6638-0.66379" style="fill:#fff"/>
  <path id="path3152" d="m391.41 885.95c-0.36681 8.8e-4 -0.66291 0.29698-0.66379 0.66379v1.0218h-1.0218c-0.36593 0-0.66292 0.29699-0.6638 0.6638 8.8e-4 0.36681 0.29787 0.66379 0.6638 0.66379h1.0218l-8.9e-4 1.0209c0 0.36593 0.29699 0.66291 0.6638 0.6638 0.18385 0 0.3509-0.0751 0.47022-0.19446 0.12021-0.12021 0.19446-0.28638 0.19357-0.46934l8.9e-4 -1.0209 1.0209-8.8e-4c0.18385 0 0.34914-0.0734 0.46935-0.19357 0.1202-0.12021 0.19445-0.28638 0.19445-0.47023-8.8e-4 -0.36681-0.29787-0.66379-0.6638-0.66379l-1.0209 8.8e-4v-1.0218c0-0.36593-0.29699-0.66291-0.6638-0.66379" style="fill:#fff"/>
  <path id="path3158" d="m403.41 885.95c-0.36681 8.8e-4 -0.66291 0.29698-0.66379 0.66379v1.0218h-1.0218c-0.36593 0-0.66292 0.29699-0.6638 0.6638 8.8e-4 0.36681 0.29787 0.66379 0.6638 0.66379h1.0218l-8.9e-4 1.0209c0 0.36593 0.29699 0.66291 0.6638 0.6638 0.18385 0 0.3509-0.0751 0.47022-0.19446 0.12021-0.12021 0.19446-0.28638 0.19357-0.46934l8.9e-4 -1.0209 1.0209-8.8e-4c0.18385 0 0.34914-0.0734 0.46935-0.19357 0.1202-0.12021 0.19445-0.28638 0.19445-0.47023-8.8e-4 -0.36681-0.29787-0.66379-0.6638-0.66379l-1.0209 8.8e-4v-1.0218c0-0.36593-0.29699-0.66291-0.6638-0.66379" style="fill:#fff"/>
  <path id="path3160" d="m415.41 885.95c-0.36681 8.8e-4 -0.66291 0.29698-0.66379 0.66379v1.0218h-1.0218c-0.36593 0-0.66292 0.29699-0.6638 0.6638 8.8e-4 0.36681 0.29787 0.66379 0.6638 0.66379h1.0218l-8.9e-4 1.0209c0 0.36593 0.29699 0.66291 0.6638 0.6638 0.18385 0 0.3509-0.0751 0.47022-0.19446 0.12021-0.12021 0.19446-0.28638 0.19357-0.46934l8.9e-4 -1.0209 1.0209-8.8e-4c0.18385 0 0.34914-0.0734 0.46935-0.19357 0.1202-0.12021 0.19445-0.28638 0.19445-0.47023-8.8e-4 -0.36681-0.29787-0.66379-0.6638-0.66379l-1.0209 8.8e-4v-1.0218c0-0.36593-0.29699-0.66291-0.6638-0.66379" style="fill:#fff"/>
  <path id="path3162" d="m491.41 885.95c-0.36681 8.8e-4 -0.66291 0.29698-0.66379 0.66379v1.0218h-1.0218c-0.36593 0-0.66292 0.29699-0.6638 0.6638 8.8e-4 0.36681 0.29787 0.66379 0.6638 0.66379h1.0218l-8.9e-4 1.0209c0 0.36593 0.29699 0.66291 0.6638 0.6638 0.18385 0 0.3509-0.0751 0.47022-0.19446 0.12021-0.12021 0.19446-0.28638 0.19357-0.46934l8.9e-4 -1.0209 1.0209-8.8e-4c0.18385 0 0.34914-0.0734 0.46935-0.19357 0.1202-0.12021 0.19445-0.28638 0.19445-0.47023-8.8e-4 -0.36681-0.29787-0.66379-0.6638-0.66379l-1.0209 8.8e-4v-1.0218c0-0.36593-0.29699-0.66291-0.6638-0.66379" style="fill:#fff"/>
  <path id="path3164" d="m503.41 885.95c-0.36681 8.8e-4 -0.66291 0.29698-0.66379 0.66379v1.0218h-1.0218c-0.36593 0-0.66292 0.29699-0.6638 0.6638 8.8e-4 0.36681 0.29787 0.66379 0.6638 0.66379h1.0218l-8.9e-4 1.0209c0 0.36593 0.29699 0.66291 0.6638 0.6638 0.18385 0 0.3509-0.0751 0.47022-0.19446 0.12021-0.12021 0.19446-0.28638 0.19357-0.46934l8.9e-4 -1.0209 1.0209-8.8e-4c0.18385 0 0.34914-0.0734 0.46935-0.19357 0.1202-0.12021 0.19445-0.28638 0.19445-0.47023-8.8e-4 -0.36681-0.29787-0.66379-0.6638-0.66379l-1.0209 8.8e-4v-1.0218c0-0.36593-0.29699-0.66291-0.6638-0.66379" style="fill:#fff"/>
  <path id="path3166" d="m515.41 885.95c-0.36681 8.8e-4 -0.66291 0.29698-0.66379 0.66379v1.0218h-1.0218c-0.36593 0-0.66292 0.29699-0.6638 0.6638 8.8e-4 0.36681 0.29787 0.66379 0.6638 0.66379h1.0218l-8.9e-4 1.0209c0 0.36593 0.29699 0.66291 0.6638 0.6638 0.18385 0 0.3509-0.0751 0.47022-0.19446 0.12021-0.12021 0.19446-0.28638 0.19357-0.46934l8.9e-4 -1.0209 1.0209-8.8e-4c0.18385 0 0.34914-0.0734 0.46935-0.19357 0.1202-0.12021 0.19445-0.28638 0.19445-0.47023-8.8e-4 -0.36681-0.29787-0.66379-0.6638-0.66379l-1.0209 8.8e-4v-1.0218c0-0.36593-0.29699-0.66291-0.6638-0.66379" style="fill:#fff"/>
  <path id="path3168" d="m485.41 893.95c-0.36681 8.8e-4 -0.66291 0.29698-0.66379 0.66379v1.0218h-1.0218c-0.36593 0-0.66292 0.29699-0.6638 0.6638 8.8e-4 0.36681 0.29787 0.66379 0.6638 0.66379h1.0218l-8.9e-4 1.0209c0 0.36593 0.29699 0.66291 0.6638 0.6638 0.18385 0 0.3509-0.0751 0.47022-0.19446 0.12021-0.12021 0.19446-0.28638 0.19357-0.46934l8.9e-4 -1.0209 1.0209-8.8e-4c0.18385 0 0.34914-0.0734 0.46935-0.19357 0.1202-0.12021 0.19445-0.28638 0.19445-0.47023-8.8e-4 -0.36681-0.29787-0.66379-0.6638-0.66379l-1.0209 8.8e-4v-1.0218c0-0.36593-0.29699-0.66291-0.6638-0.66379" style="fill:#fff"/>
  <path id="path3170" d="m497.41 893.95c-0.36681 8.8e-4 -0.66291 0.29698-0.66379 0.66379v1.0218h-1.0218c-0.36593 0-0.66292 0.29699-0.6638 0.6638 8.8e-4 0.36681 0.29787 0.66379 0.6638 0.66379h1.0218l-8.9e-4 1.0209c0 0.36593 0.29699 0.66291 0.6638 0.6638 0.18385 0 0.3509-0.0751 0.47022-0.19446 0.12021-0.12021 0.19446-0.28638 0.19357-0.46934l8.9e-4 -1.0209 1.0209-8.8e-4c0.18385 0 0.34914-0.0734 0.46935-0.19357 0.1202-0.12021 0.19445-0.28638 0.19445-0.47023-8.8e-4 -0.36681-0.29787-0.66379-0.6638-0.66379l-1.0209 8.8e-4v-1.0218c0-0.36593-0.29699-0.66291-0.6638-0.66379" style="fill:#fff"/>
  <path id="path3172" d="m509.41 893.95c-0.36681 8.8e-4 -0.66291 0.29698-0.66379 0.66379v1.0218h-1.0218c-0.36593 0-0.66292 0.29699-0.6638 0.6638 8.8e-4 0.36681 0.29787 0.66379 0.6638 0.66379h1.0218l-8.9e-4 1.0209c0 0.36593 0.29699 0.66291 0.6638 0.6638 0.18385 0 0.3509-0.0751 0.47022-0.19446 0.12021-0.12021 0.19446-0.28638 0.19357-0.46934l8.9e-4 -1.0209 1.0209-8.8e-4c0.18385 0 0.34914-0.0734 0.46935-0.19357 0.1202-0.12021 0.19445-0.28638 0.19445-0.47023-8.8e-4 -0.36681-0.29787-0.66379-0.6638-0.66379l-1.0209 8.8e-4v-1.0218c0-0.36593-0.29699-0.66291-0.6638-0.66379" style="fill:#fff"/>
  <path id="path3184" d="m399.47 625.82c-0.27375-0.13875-0.6075-0.0263-0.7475 0.2475l-1.9838 3.9475c-0.13625 0.275-0.025 0.60875 0.24625 0.745 0.08 0.04 0.16625 0.06 0.25125 0.06 0.20375 0 0.3975-0.11125 0.49625-0.30625l1.9825-3.9488c0.14125-0.2725 0.03-0.6075-0.245-0.745" style="fill:#fff"/>
  <path id="path3186" d="m201.41 805.95c-0.36681 8.8e-4 -0.66291 0.29698-0.66379 0.66379v1.0218h-1.0218c-0.36593 0-0.66292 0.29699-0.6638 0.6638 8.8e-4 0.36681 0.29787 0.66379 0.6638 0.66379h1.0218l-8.9e-4 1.0209c0 0.36593 0.29699 0.66291 0.6638 0.6638 0.18385 0 0.3509-0.0751 0.47022-0.19446 0.12021-0.12021 0.19446-0.28638 0.19357-0.46934l8.9e-4 -1.0209 1.0209-8.8e-4c0.18385 0 0.34914-0.0734 0.46935-0.19357 0.1202-0.12021 0.19445-0.28638 0.19445-0.47023-8.8e-4 -0.36681-0.29787-0.66379-0.6638-0.66379l-1.0209 8.8e-4v-1.0218c0-0.36593-0.29699-0.66291-0.6638-0.66379" style="fill:#fff"/>
  <path id="path3188" d="m213.41 805.95c-0.36681 8.8e-4 -0.66291 0.29698-0.66379 0.66379v1.0218h-1.0218c-0.36593 0-0.66292 0.29699-0.6638 0.6638 8.8e-4 0.36681 0.29787 0.66379 0.6638 0.66379h1.0218l-8.9e-4 1.0209c0 0.36593 0.29699 0.66291 0.6638 0.6638 0.18385 0 0.3509-0.0751 0.47022-0.19446 0.12021-0.12021 0.19446-0.28638 0.19357-0.46934l8.9e-4 -1.0209 1.0209-8.8e-4c0.18385 0 0.34914-0.0734 0.46935-0.19357 0.1202-0.12021 0.19445-0.28638 0.19445-0.47023-8.8e-4 -0.36681-0.29787-0.66379-0.6638-0.66379l-1.0209 8.8e-4v-1.0218c0-0.36593-0.29699-0.66291-0.6638-0.66379" style="fill:#fff"/>
  <path id="path3190" d="m225.41 805.95c-0.36681 8.8e-4 -0.66291 0.29698-0.66379 0.66379v1.0218h-1.0218c-0.36593 0-0.66292 0.29699-0.6638 0.6638 8.8e-4 0.36681 0.29787 0.66379 0.6638 0.66379h1.0218l-8.9e-4 1.0209c0 0.36593 0.29699 0.66291 0.6638 0.6638 0.18385 0 0.3509-0.0751 0.47022-0.19446 0.12021-0.12021 0.19446-0.28638 0.19357-0.46934l8.9e-4 -1.0209 1.0209-8.8e-4c0.18385 0 0.34914-0.0734 0.46935-0.19357 0.1202-0.12021 0.19445-0.28638 0.19445-0.47023-8.8e-4 -0.36681-0.29787-0.66379-0.6638-0.66379l-1.0209 8.8e-4v-1.0218c0-0.36593-0.29699-0.66291-0.6638-0.66379" style="fill:#fff"/>
  <path id="path3198" d="m108.76 801.95h22.175c0.14625 0 0.3 0 0.445 0.0162v-0.0162c3.6225 0 6.57-2.9462 6.57-6.57 0-3.6212-2.9475-6.5688-6.57-6.5688-0.51125 0-1.045 0.0675-1.585 0.2-0.17625 0.045-0.36125 0.0125-0.5125-0.0875-0.14875-0.1-0.25125-0.25875-0.27875-0.4375-0.735-4.675-4.7012-8.0688-9.4312-8.0688-5.27 0-9.56 4.2888-9.56 9.56 0 0.26 0.0175 0.515 0.0387 0.76875 0.0175 0.19125-0.0537 0.38125-0.1925 0.515-0.13625 0.135-0.3275 0.19875-0.52 0.18-0.19-0.0213-0.38375-0.0337-0.57875-0.0337-2.9075 0-5.2712 2.365-5.2712 5.2712s2.3638 5.2712 5.2712 5.2712m-0.0362-11.832v-0.14c0-5.9812 4.865-10.85 10.849-10.85 5.145 0 9.49 3.5338 10.581 8.4962 0.4125-0.0688 0.825-0.1025 1.2262-0.1025 4.3325 0 7.8588 3.525 7.8588 7.8588s-3.5262 7.8588-7.8612 7.8588h-22.618c-3.6188 0-6.5625-2.9425-6.5625-6.56 0-3.6062 2.925-6.5425 6.5262-6.5612" style="fill:#fff"/>
  <path id="path3200" d="m100.86 783.18c0.4025 0 0.8125 0.0337 1.2275 0.10125 1.09-4.9625 5.4375-8.495 10.581-8.495 2.2388 0 4.39 0.67625 6.2162 1.9588 0.2925 0.20375 0.36375 0.605 0.15875 0.89625-0.205 0.2925-0.605 0.3625-0.89875 0.15875-1.6088-1.1275-3.5038-1.725-5.4762-1.725-4.7312 0-8.6988 3.3938-9.4312 8.0688-0.0287 0.17875-0.12875 0.3375-0.28 0.4375s-0.3375 0.13125-0.5125 0.0888c-0.5375-0.1325-1.07-0.2-1.585-0.2-3.6225 0-6.57 2.9475-6.57 6.5688 0 3.3788 2.5325 6.1875 5.8862 6.5338 0.35375 0.0362 0.6125 0.35375 0.57625 0.7075-0.0337 0.3325-0.315 0.57875-0.6425 0.57875-0.0212 0-0.0437-1e-3 -0.065-2e-3 -4.0162-0.415-7.0438-3.775-7.0438-7.8175 0-4.3338 3.525-7.8588 7.8588-7.8588" style="fill:#fff"/>
  <path id="path3202" d="m111.03 813.79c0 0.54125 0.3175 0.98 0.71 0.98h0.73c0.39375 0 0.71125-0.43875 0.71125-0.98v-5.0775c0-0.54125-0.3175-0.98-0.71125-0.98h-0.73c-0.3925 0-0.71 0.43875-0.71 0.98z" style="fill:#fff"/>
  <path id="path3204" d="m120.04 813.79c0 0.54125 0.3175 0.98 0.71 0.98h0.73c0.39375 0 0.71125-0.43875 0.71125-0.98v-5.0775c0-0.54125-0.3175-0.98-0.71125-0.98h-0.73c-0.3925 0-0.71 0.43875-0.71 0.98z" style="fill:#fff"/>
  <path id="path3206" d="m129.05 813.79c0 0.54125 0.3175 0.98 0.71 0.98h0.73c0.39375 0 0.71125-0.43875 0.71125-0.98v-5.0775c0-0.54125-0.3175-0.98-0.71125-0.98h-0.73c-0.3925 0-0.71 0.43875-0.71 0.98z" style="fill:#fff"/>
  <path id="path4010" d="m302.25 598.11c-8.8278 0-16 7.1722-16 16 0 8.8278 7.1722 16 16 16 8.8278 0 16-7.1722 16-16 0-8.8278-7.1722-16-16-16zm0 1.4769c8.0296 0 14.523 6.4935 14.523 14.523s-6.4935 14.523-14.523 14.523-14.523-6.4934-14.523-14.523 6.4935-14.523 14.523-14.523z" style="color:#000000;fill:#fff;text-decoration-line:none;text-indent:0;text-transform:none"/>
  <path id="path4017" d="m210.91 854.08c-8.8278 0-16 7.1722-16 16 0 8.8278 7.1722 16 16 16 8.8278 0 16-7.1722 16-16 0-8.8278-7.1722-16-16-16zm0 1.4769c8.0296 0 14.523 6.4935 14.523 14.523s-6.4935 14.523-14.523 14.523-14.523-6.4934-14.523-14.523 6.4935-14.523 14.523-14.523z" style="color:#000000;fill:#fff;text-decoration-line:none;text-indent:0;text-transform:none"/>
  <path id="path4019" d="m105 940.61v1.5h35v-1.5z" style="color:#000000;fill:#fff;text-decoration-line:none;text-indent:0;text-transform:none"/>
  <path id="path4021" d="m105 950.62v1.5h35v-1.5z" style="color:#000000;fill:#fff;text-decoration-line:none;text-indent:0;text-transform:none"/>
  <path id="path4023" d="m105 960.62v1.5h35v-1.5z" style="color:#000000;fill:#fff;text-decoration-line:none;text-indent:0;text-transform:none"/>
  <path id="path4037" d="m105 970.62v1.5h35v-1.5z" style="color:#000000;fill:#fff;text-decoration-line:none;text-indent:0;text-transform:none"/>
  <path id="path4060" d="m227.64 879.7c4.2688 0 8.3611-1.6684 11.38-4.6869 6.2796-6.2796 6.2712-16.501-8e-3 -22.781-6.2796-6.2796-16.473-6.2876-22.752-8e-3 -0.9011 0.9011 0.46476 1.728 1.0891 1.1036 5.6814-5.6813 14.895-5.6597 20.576 0.0217 5.6814 5.6814 5.6716 14.85-0.01 20.531-2.7253 2.7253-6.4107 4.2693-10.265 4.2693-0.96271 0-1.1475 1.5495-9e-3 1.5495z" style="color:#000000;fill:#fff;text-decoration-line:none;text-indent:0;text-transform:none"/>
  <path id="path3137" d="m119.34 884.5h22.826c0.1525 0 0.31 0 0.45875 0.0162v-0.0162c3.7275 0 6.7612-3.0325 6.7612-6.7612s-3.0338-6.7612-6.7612-6.7612c-0.53 0-1.0775 0.0688-1.6312 0.205-0.18 0.045-0.3725 0.0125-0.5275-0.0912-0.155-0.10375-0.26-0.265-0.28875-0.44875-0.755-4.8138-4.8375-8.305-9.7075-8.305-5.4262 0-9.84 4.4138-9.84 9.84 0 0.2675 0.0188 0.53 0.04 0.79125 0.0163 0.1975-0.0562 0.39125-0.1975 0.52875-0.1425 0.14-0.33875 0.20625-0.53375 0.185-0.1975-0.02-0.39625-0.0337-0.59875-0.0337-2.9912 0-5.425 2.4338-5.425 5.425 0 2.9925 2.4338 5.4262 5.425 5.4262m-0.0362-12.179c-1e-3 -0.0475-1e-3 -0.0962-1e-3 -0.14375 0-6.1588 5.01-11.168 11.168-11.168 5.295 0 9.77 3.6362 10.891 8.7438 0.42625-0.07 0.84875-0.10375 1.2638-0.10375 4.46 0 8.0888 3.6288 8.0888 8.0888s-3.6288 8.0888-8.0925 8.0888h-23.281c-3.7238 0-6.7525-3.0288-6.7525-6.7538 0-3.71 3.0088-6.7325 6.7162-6.7525" style="fill:#fff"/>
  <path id="path3171" d="m109.05 882.32c-4.1556-0.97666-7.7576-3.5371-10.005-7.1661-4.6764-7.5498-2.3297-17.498 5.2198-22.175 7.5498-4.6764 17.474-2.352 22.151 5.1977 0.67104 1.0834-0.84778 1.5759-1.3128 0.8252-4.2308-6.8305-13.205-8.9173-20.035-4.6864-6.8305 4.2308-8.9187 13.159-4.6876 19.989 2.0295 3.2766 5.2639 5.6228 9.0159 6.5046 0.93717 0.22026 0.76253 1.7709-0.34575 1.5105z" style="color:#000000;fill:#fff;text-decoration-line:none;text-indent:0;text-transform:none"/>
  <path id="path3233" d="m214.42 947.67c-5.9152 0-10.728 4.8123-10.728 10.728 0 0.42857 0.34749 0.77606 0.77607 0.77606 0.42857 0 0.77607-0.34749 0.77607-0.77606 0-5.0594 4.1163-9.1756 9.1756-9.1756 5.0594 0 9.1755 4.1163 9.1755 9.1756 0 0.42857 0.34749 0.77606 0.77607 0.77606 0.42857 0 0.77606-0.34749 0.77606-0.77606-8e-5 -5.9154-4.8126-10.728-10.728-10.728z" style="fill:#fff"/>
  <path id="path3235" d="m219.62 952.98c-0.39514-0.16705-0.85033 0.0166-1.0176 0.41115l-3.4666 8.1639c-0.23214-0.0452-0.47127-0.0706-0.71637-0.0706-2.0642 0-3.7434 1.6794-3.7434 3.7434 0 2.0639 1.6792 3.7432 3.7434 3.7432 2.0642 0 3.7433-1.6794 3.7433-3.7432 0-1.2664-0.63394-2.3866-1.5996-3.0641l3.4678-8.1665c0.16747-0.39439-0.0166-0.84991-0.41098-1.0173zm-5.2005 14.439c-1.2084 0-2.1913-0.98295-2.1913-2.1913 0-1.2084 0.98294-2.1913 2.1913-2.1913 1.2083 0 2.1912 0.98295 2.1912 2.1913 0 1.2083-0.98286 2.1913-2.1912 2.1913z" style="fill:#fff"/>
  <path id="path3247" d="m214.25 942.11c-8.8278 0-16 7.1722-16 16 0 8.8278 7.1722 16 16 16 8.8278 0 16-7.1722 16-16 0-8.8278-7.1722-16-16-16zm0 1.4769c8.0296 0 14.523 6.4935 14.523 14.523s-6.4935 14.523-14.523 14.523-14.523-6.4934-14.523-14.523 6.4935-14.523 14.523-14.523z" style="color:#000000;fill:#fff;text-decoration-line:none;text-indent:0;text-transform:none"/>
  <path id="path4117" d="m281.29 955.44c-1.015 3.3661-1.0546 7.0182 0.1463 10.578 2.8613 8.4814 12.238 13.602 20.856 10.627 7.6065-2.626 12.195-11.087 9.4456-18.83-2.3903-6.7314-9.9366-10.791-16.805-8.2642-5.8561 2.1542-9.357 8.7956-7.0497 14.789 1.9175 4.9806 7.6464 7.9622 12.763 5.8683 4.1047-1.6798 6.5448-6.5078 4.6538-10.747-1.4404-3.2286-5.3735-5.1481-8.7301-3.4392-1.1766 0.59905-2.1139 1.6397-2.5756 2.8583-0.46164 1.2186-0.44628 2.6586 0.34198 3.8884 0.47729 0.74471 1.2635 1.2883 2.1442 1.5326 0.88071 0.2443 1.9697 0.10794 2.7054-0.69444 0.4474-0.48793 0.53493-1.0352 0.47666-1.6465-0.0291-0.30561-0.10755-0.64468-0.425-0.93001-0.31745-0.28532-0.83863-0.37029-1.2427-0.26201l0.39125 1.4532c0.0786-0.021-0.072-1e-3 -0.15666-0.0775-0.0846-0.0761-0.0644-0.12482-0.0573-0.0508 0.0141 0.14794-0.15236 0.56262-0.1 0.50547-0.33473 0.36506-0.72139 0.41456-1.2102 0.27895-0.48884-0.1356-0.98825-0.54308-1.2397-0.9354-0.5153-0.80399-0.53059-1.6843-0.20671-2.5393 0.32388-0.85494 1.0076-1.6454 1.8306-2.0644 2.5126-1.2792 5.5626 0.24364 6.6798 2.7479 1.5178 3.4022-0.49621 7.3451-3.8631 8.723-4.2855 1.7538-9.1607-0.78756-10.79-5.0203-1.9887-5.1656 1.0679-10.948 6.1686-12.825 6.0438-2.2233 12.763 1.3888 14.883 7.3589 2.4576 6.921-1.6668 14.556-8.5072 16.917-7.7974 2.6919-16.341-1.9772-18.943-9.6886-2.926-8.6732 2.254-18.136 10.837-20.977 9.5488-3.1602 19.932 2.5303 23.011 11.985l1.4379-0.46634c-3.3314-10.231-14.548-16.388-24.915-12.957-5.8476 1.9353-10.263 6.6931-11.955 12.303z" style="color:#000000;fill:#fff;text-decoration-line:none;text-indent:0;text-transform:none"/>
  <path id="path4253" d="m394.53 943.47c-0.34432 0-0.72065 0.10304-1 0.3125-0.26947 0.20209-0.46927 0.48599-0.5625 0.8125v0.0313l-4.0312 16.5v0.0313c-0.10695 0.51258 0.0944 1.0995 0.5 1.4375 0.29528 0.2505 0.68083 0.40625 1.0625 0.40625 0.12365 0 0.25412-0.0267 0.40625-0.0625h0.0313l6.9688-1.7188-3.6562 15c-2e-3 0.01 2e-3 0.0213 0 0.0313-0.0827 0.36602-0.0389 0.80431 0.15625 1.125 0.20174 0.33272 0.54109 0.5799 0.90625 0.6875h0.0313 0.0625c0.14938 0.0294 0.23468 0.0625 0.40625 0.0625 0.5873 0 1.197-0.35309 1.4688-0.875v-0.0313l10.781-23.125c0.21936-0.47835 0.0948-1.1042-0.21875-1.5312-0.026-0.0354-2e-3 -0.0926-0.0313-0.125l-0.25 0.1875 0.21875-0.21875c-0.3045-0.3045-0.71981-0.49916-1.1562-0.5-0.17102 0-0.27454 0.0299-0.40625 0.0625l-6.6562 1.6562 2.9375-7.9688c0.01-0.02 0.0218-0.0421 0.0313-0.0625 0.0843-0.18276 0.15625-0.36563 0.15625-0.59375 0-0.40553-0.18168-0.81759-0.46875-1.0938-0.2962-0.28529-0.7186-0.4375-1.125-0.4375h-6.5625zm0 1.375h6.5625c0.0995 0 0.10603 0.0141 0.15625 0.0625 0.0593 0.057 0.0313 0.0464 0.0313 0.0937 0-0.0402 2e-3 -0.0363-0.0313 0.0313v0.0625l-0.0313 0.0313-3.4062 9.25-0.46875 1.2188 1.2812-0.3125 7.9375-1.9375c0.0822-0.0204 0.12612-0.0313 0.0625-0.0313 0.0559 1.1e-4 0.10001 0.0139 0.15625 0.0625 5e-3 4e-3 -5e-3 0.0265 0 0.0313 0.0365 0.0233 0.074 5.8e-4 0.0313 0.0937l-10.781 23.094c-0.0127 0.0244-0.0236 0.0154-0.0313 0.0313-0.0377 0.0778-0.0334 0.0937-0.1875 0.0937 0.0376 0-0.0518 5e-3 -0.0937 0-0.0439-0.0129-0.0493-0.0217-0.0625-0.0313-0.0132-0.01-0.0188-0.0419-0.0313-0.0625-0.0262-0.043-0.0446-9e-3 -0.0313-0.0625l3.9375-16.156 0.28125-1.125-1.125 0.28125-8.0938 2.0312h-0.0313c0.065-0.017 0.018 0-0.0625 0-0.0982 0-0.10509-0.0191-0.15625-0.0625-0.052-0.0433-0.043-0.0415-0.0313-0.0625v-0.0313l4-16.438v-0.0313c9e-3 -0.0248 0.0237-0.0334 0.0625-0.0625 0.0406-0.0304 0.0741-0.0625 0.15625-0.0625z" style="color:#000000;fill:#fff;text-decoration-line:none;text-indent:0;text-transform:none"/>
  <g id="g4354" transform="translate(516.88 942.14)" style="fill:#fff">
   <g id="g4360" transform="matrix(4.832 0 0 4.832 -104.29 -176.7)" style="fill:#fff;stroke-width:.31043;stroke:#000">
    <path id="path4362" d="m17.969 36.75-0.125 0.1875-0.375 0.5625h-0.03125c-0.1513 0.22721-0.58046 0.91857-1 1.6875s-0.8125 1.5897-0.8125 2.1875c0 1.2894 1.0533 2.3438 2.3438 2.3438 1.2934 0.0011 2.3438-1.0545 2.3438-2.3438 0-0.59764-0.39332-1.4185-0.8125-2.1875s-0.87764-1.4591-1.0312-1.6875l-0.375-0.5625zm0 0.53125 0.25 0.375c0.15039 0.22361 0.58868 0.90172 1 1.6562s0.78125 1.6141 0.78125 2.0625c0 1.1208-0.90662 2.0322-2.0312 2.0312-1.1216 0-2.0312-0.91066-2.0312-2.0312 0-0.44821 0.33829-1.3079 0.75-2.0625s0.88156-1.4315 1.0312-1.6562z" style="color:#000000;fill:#fff;stroke:none;text-decoration-line:none;text-indent:0;text-transform:none"/>
   </g>
  </g>
  <g id="text4389" style="fill:#808080">
   <path id="path4402" d="m175.85 498.15c0.61599 0.61602 1.0733 1.3067 1.372 2.072 0.29866 0.74669 0.44799 1.5214 0.448 2.324-1e-5 0.78402-0.14934 1.5587-0.448 2.324-0.29867 0.76535-0.75601 1.4467-1.372 2.044l-8.12 7.7h10.192v1.96h-13.048v-1.96l9.604-9.044c0.41066-0.41065 0.71866-0.87732 0.924-1.4 0.22399-0.54132 0.33599-1.0826 0.336-1.624-1e-5 -0.54132-0.11201-1.0733-0.336-1.596-0.20534-0.52265-0.51334-0.98931-0.924-1.4-0.42934-0.41065-0.90534-0.71865-1.428-0.924-0.504-0.22398-1.036-0.33598-1.596-0.336-0.54134 2e-5 -1.0733 0.11202-1.596 0.336-0.52267 0.20535-0.98933 0.51335-1.4 0.924-0.392 0.39202-0.69067 0.84002-0.896 1.344-0.20533 0.48535-0.32667 0.98935-0.364 1.512h-1.96c0.0187-0.78398 0.17734-1.54 0.476-2.268 0.29867-0.72798 0.74667-1.3906 1.344-1.988 0.616-0.61598 1.2973-1.0733 2.044-1.372 0.76533-0.29864 1.5493-0.44798 2.352-0.448 0.80266 2e-5 1.5773 0.14936 2.324 0.448 0.76533 0.29869 1.456 0.75602 2.072 1.372" style="fill:#808080"/>
   <path id="path4404" d="m182.16 503c1.232-0.76532 2.5573-1.1386 3.976-1.12 1.064 2e-5 2.0627 0.20535 2.996 0.616 0.93332 0.39202 1.7453 0.94268 2.436 1.652 0.70932 0.69068 1.26 1.5027 1.652 2.436 0.41065 0.93335 0.61599 1.932 0.616 2.996-1e-5 1.064-0.20535 2.0627-0.616 2.996-0.39201 0.93334-0.94268 1.7547-1.652 2.464-0.69068 0.69067-1.5027 1.232-2.436 1.624-0.93334 0.41067-1.932 0.616-2.996 0.616-1.064 0-2.0627-0.20533-2.996-0.616-0.93333-0.392-1.7547-0.93333-2.464-1.624-0.69067-0.70933-1.2413-1.5307-1.652-2.464-0.392-0.91466-0.588-1.904-0.588-2.968h1.96c0 0.78401 0.14933 1.5213 0.448 2.212 0.29867 0.69067 0.70933 1.2973 1.232 1.82 0.52267 0.52267 1.1293 0.93334 1.82 1.232 0.70933 0.29867 1.456 0.448 2.24 0.448 0.78399 0 1.5213-0.14933 2.212-0.448 0.70933-0.29866 1.3253-0.70933 1.848-1.232 0.52266-0.52266 0.93332-1.1293 1.232-1.82 0.29866-0.70932 0.44799-1.456 0.448-2.24-1e-5 -0.78399-0.14934-1.5213-0.448-2.212-0.29868-0.70932-0.70934-1.3253-1.232-1.848-0.52268-0.52265-1.1387-0.93332-1.848-1.232-0.69067-0.29865-1.4747-0.44798-2.352-0.448-0.896 2e-5 -1.736 0.15868-2.52 0.476-0.784 0.29868-1.4093 0.76535-1.876 1.4h-1.96l1.736-8.736h9.744v1.96h-8.176l-0.784 4.06" style="fill:#808080"/>
   <path id="path4406" d="m203.71 506.78c0-1.4373 0.27067-2.7906 0.812-4.06 0.56-1.2693 1.316-2.38 2.268-3.332 0.952-0.95198 2.0627-1.6986 3.332-2.24 1.2693-0.55998 2.6227-0.83998 4.06-0.84 1.4373 2e-5 2.7906 0.28002 4.06 0.84 1.2693 0.54136 2.38 1.288 3.332 2.24 0.95198 0.95202 1.6986 2.0627 2.24 3.332 0.55998 1.2694 0.83998 2.6227 0.84 4.06-2e-5 1.4373-0.28002 2.7907-0.84 4.06-0.54135 1.2693-1.288 2.38-2.24 3.332-0.95202 0.952-2.0627 1.708-3.332 2.268-1.2694 0.54134-2.6227 0.812-4.06 0.812-1.4373 0-2.7907-0.27066-4.06-0.812-1.2693-0.56-2.38-1.316-3.332-2.268-0.952-0.95199-1.708-2.0627-2.268-3.332-0.54133-1.2693-0.812-2.6227-0.812-4.06m1.96 0c0 1.1573 0.224 2.2587 0.672 3.304 0.448 1.0267 1.0547 1.932 1.82 2.716 0.784 0.76534 1.6893 1.372 2.716 1.82 1.0453 0.448 2.1467 0.672 3.304 0.672 1.1573 0 2.2493-0.224 3.276-0.672 1.0266-0.44799 1.9226-1.0547 2.688-1.82 0.78398-0.78399 1.4-1.6893 1.848-2.716 0.44798-1.0453 0.67198-2.1467 0.672-3.304-2e-5 -1.1573-0.22402-2.2493-0.672-3.276-0.44802-1.0266-1.064-1.9226-1.848-2.688-0.76535-0.78398-1.6614-1.4-2.688-1.848-1.0267-0.44798-2.1187-0.67198-3.276-0.672-1.1573 2e-5 -2.2587 0.22402-3.304 0.672-1.0267 0.44802-1.932 1.064-2.716 1.848-0.76534 0.76535-1.372 1.6614-1.82 2.688-0.448 1.0267-0.672 2.1187-0.672 3.276" style="fill:#808080"/>
   <path id="path4408" d="m236.4 510.28v-7.7h1.96v7.7c-1e-5 0.85868-0.16801 1.6707-0.504 2.436-0.31734 0.76534-0.76534 1.4373-1.344 2.016-0.56001 0.56-1.2227 1.008-1.988 1.344-0.76534 0.336-1.5773 0.504-2.436 0.504-0.85867 0-1.6707-0.168-2.436-0.504-0.76534-0.336-1.4373-0.784-2.016-1.344-0.56-0.57866-1.008-1.2507-1.344-2.016-0.336-0.76533-0.504-1.5773-0.504-2.436v-0.028l-0.028-7.672h2.016l0.028 7.672v0.028c0 0.59734 0.112 1.1573 0.336 1.68 0.224 0.52267 0.532 0.98001 0.924 1.372 0.392 0.37334 0.84 0.67201 1.344 0.896 0.52266 0.22401 1.0827 0.336 1.68 0.336 0.59733 0 1.1573-0.11199 1.68-0.336 0.52266-0.22399 0.97999-0.52266 1.372-0.896 0.39199-0.39199 0.69999-0.84933 0.924-1.372 0.22399-0.52266 0.33599-1.0827 0.336-1.68" style="fill:#808080"/>
   <path id="path4410" d="m240.07 504.54v-1.96h1.428v-5.6h1.96v5.6h3.668v1.96h-3.668v12.04h-1.96v-12.04h-1.428" style="fill:#808080"/>
   <path id="path4412" d="m248.78 496.98h1.96v19.6h-1.96v-19.6" style="fill:#808080"/>
   <path id="path4414" d="m252.72 502.58h1.96v14h-1.96v-14m-0.168-4.424c0-0.33598 0.112-0.61598 0.336-0.84 0.224-0.22398 0.504-0.33598 0.84-0.336 0.33599 2e-5 0.61599 0.11202 0.84 0.336 0.22399 0.22402 0.33599 0.50402 0.336 0.84-1e-5 0.33602-0.11201 0.61602-0.336 0.84-0.22401 0.22402-0.50401 0.33602-0.84 0.336-0.336 2e-5 -0.616-0.11198-0.84-0.336-0.224-0.22398-0.336-0.50398-0.336-0.84" style="fill:#808080"/>
   <path id="path4416" d="m267.19 508.18c-1e-5 -0.59732-0.11201-1.1573-0.336-1.68-0.22401-0.52265-0.53201-0.97999-0.924-1.372-0.39201-0.39199-0.84935-0.69998-1.372-0.924-0.52268-0.22398-1.0733-0.33598-1.652-0.336-0.57868 2e-5 -1.1293 0.12135-1.652 0.364-0.52268 0.24268-0.98001 0.56935-1.372 0.98-0.39201 0.39201-0.70934 0.84935-0.952 1.372-0.22401 0.52268-0.33601 1.0547-0.336 1.596l0.028 8.4h-1.988v-14h1.96v1.288c0.18666-0.29865 0.43866-0.56932 0.756-0.812 0.31733-0.26132 0.66266-0.47598 1.036-0.644 0.39199-0.18665 0.80266-0.32665 1.232-0.42 0.42932-0.0933 0.85866-0.13998 1.288-0.14 0.85866 2e-5 1.6706 0.16802 2.436 0.504 0.76532 0.33602 1.428 0.79335 1.988 1.372 0.57865 0.56002 1.036 1.232 1.372 2.016 0.33598 0.76535 0.50398 1.5774 0.504 2.436l0.028 8.4h-2.016l-0.028-8.4" style="fill:#808080"/>
   <path id="path4418" d="m272.86 509.55c0 0.78401 0.14933 1.5307 0.448 2.24 0.29866 0.69067 0.70933 1.2973 1.232 1.82 0.52266 0.52267 1.1293 0.93334 1.82 1.232 0.70933 0.29867 1.456 0.448 2.24 0.448 0.78399 0 1.5213-0.14933 2.212-0.448 0.70932-0.29866 1.3253-0.70933 1.848-1.232 0.37332-0.37333 0.69065-0.80266 0.952-1.288h2.156l-0.084 0.224c-0.39202 0.93334-0.94268 1.7547-1.652 2.464-0.69068 0.69067-1.5027 1.232-2.436 1.624-0.93334 0.41067-1.932 0.616-2.996 0.616-1.064 0-2.0627-0.20533-2.996-0.616-0.93334-0.392-1.7547-0.93333-2.464-1.624-0.69067-0.70933-1.2413-1.5307-1.652-2.464-0.392-0.93333-0.588-1.932-0.588-2.996 0-1.064 0.196-2.0626 0.588-2.996 0.41066-0.93332 0.96133-1.7453 1.652-2.436 0.70933-0.70932 1.5307-1.26 2.464-1.652 0.93333-0.41065 1.932-0.61598 2.996-0.616 1.064 2e-5 2.0627 0.20535 2.996 0.616 0.93332 0.39202 1.7453 0.94268 2.436 1.652 0.70932 0.69068 1.26 1.5027 1.652 2.436 0.33598 0.76535 0.53198 1.568 0.588 2.408h-13.384c-0.0187 0.20534-0.028 0.40134-0.028 0.588m9.8-4.06c-0.52268-0.52265-1.1387-0.93332-1.848-1.232-0.69068-0.29865-1.428-0.44798-2.212-0.448-0.78401 2e-5 -1.5307 0.14935-2.24 0.448-0.69067 0.29868-1.2973 0.70935-1.82 1.232-0.448 0.44801-0.812 0.95201-1.092 1.512h10.276c-0.28001-0.55999-0.63468-1.064-1.064-1.512" style="fill:#808080"/>
   <path id="path4420" d="m305.6 508.04-6.244 8.54h-1.96v-19.6h1.96v16.268l6.244-8.512 6.3 8.54v-16.296h1.96v19.6h-1.96l-6.3-8.54" style="fill:#808080"/>
   <path id="path4422" d="m317.04 509.55c0 0.78401 0.14933 1.5307 0.448 2.24 0.29866 0.69067 0.70933 1.2973 1.232 1.82 0.52266 0.52267 1.1293 0.93334 1.82 1.232 0.70933 0.29867 1.456 0.448 2.24 0.448 0.78399 0 1.5213-0.14933 2.212-0.448 0.70932-0.29866 1.3253-0.70933 1.848-1.232 0.37332-0.37333 0.69065-0.80266 0.952-1.288h2.156l-0.084 0.224c-0.39202 0.93334-0.94268 1.7547-1.652 2.464-0.69068 0.69067-1.5027 1.232-2.436 1.624-0.93334 0.41067-1.932 0.616-2.996 0.616-1.064 0-2.0627-0.20533-2.996-0.616-0.93334-0.392-1.7547-0.93333-2.464-1.624-0.69067-0.70933-1.2413-1.5307-1.652-2.464-0.392-0.93333-0.588-1.932-0.588-2.996 0-1.064 0.196-2.0626 0.588-2.996 0.41066-0.93332 0.96133-1.7453 1.652-2.436 0.70933-0.70932 1.5307-1.26 2.464-1.652 0.93333-0.41065 1.932-0.61598 2.996-0.616 1.064 2e-5 2.0627 0.20535 2.996 0.616 0.93332 0.39202 1.7453 0.94268 2.436 1.652 0.70932 0.69068 1.26 1.5027 1.652 2.436 0.33598 0.76535 0.53198 1.568 0.588 2.408h-13.384c-0.0187 0.20534-0.028 0.40134-0.028 0.588m9.8-4.06c-0.52268-0.52265-1.1387-0.93332-1.848-1.232-0.69068-0.29865-1.428-0.44798-2.212-0.448-0.78401 2e-5 -1.5307 0.14935-2.24 0.448-0.69067 0.29868-1.2973 0.70935-1.82 1.232-0.448 0.44801-0.812 0.95201-1.092 1.512h10.276c-0.28001-0.55999-0.63468-1.064-1.064-1.512" style="fill:#808080"/>
   <path id="path4424" d="m331.82 509.55c0-1.064 0.196-2.0626 0.588-2.996 0.41067-0.93332 0.96134-1.7453 1.652-2.436 0.70933-0.70932 1.5307-1.26 2.464-1.652 0.93333-0.41065 1.932-0.61598 2.996-0.616 1.064 2e-5 2.0627 0.20535 2.996 0.616 0.93333 0.39202 1.7453 0.94268 2.436 1.652 0.70932 0.69068 1.26 1.5027 1.652 2.436 0.41066 0.93335 0.61599 1.932 0.616 2.996v7.028h-1.96v-1.876c-0.0933 0.0933-0.19601 0.196-0.308 0.308-0.69068 0.69067-1.5027 1.232-2.436 1.624-0.93334 0.41067-1.932 0.616-2.996 0.616-1.064 0-2.0627-0.20533-2.996-0.616-0.93333-0.392-1.7547-0.93333-2.464-1.624-0.69066-0.70933-1.2413-1.5307-1.652-2.464-0.392-0.93333-0.588-1.932-0.588-2.996m1.96 0c0 0.78401 0.14933 1.5307 0.448 2.24 0.29867 0.69067 0.70933 1.2973 1.232 1.82 0.52267 0.52267 1.1293 0.93334 1.82 1.232 0.70933 0.29867 1.456 0.448 2.24 0.448s1.5213-0.14933 2.212-0.448c0.70933-0.29866 1.3253-0.70933 1.848-1.232 0.52266-0.52266 0.93332-1.1293 1.232-1.82 0.26132-0.63466 0.41066-1.2973 0.448-1.988v-0.252c-1e-5 -0.78399-0.14934-1.5213-0.448-2.212-0.29868-0.70932-0.70934-1.3253-1.232-1.848-0.52267-0.52265-1.1387-0.93332-1.848-1.232-0.69067-0.29865-1.428-0.44798-2.212-0.448-0.784 2e-5 -1.5307 0.14935-2.24 0.448-0.69067 0.29868-1.2973 0.70935-1.82 1.232-0.52267 0.52268-0.93333 1.1387-1.232 1.848-0.29867 0.69068-0.448 1.428-0.448 2.212" style="fill:#808080"/>
   <path id="path4426" d="m348.03 504.54v-1.96h1.428v-5.6h1.96v5.6h3.668v1.96h-3.668v12.04h-1.96v-12.04h-1.428" style="fill:#808080"/>
   <path id="path4428" d="m356.74 496.98h2.016v6.832c0.224-0.29865 0.48533-0.56932 0.784-0.812 0.31733-0.24265 0.66266-0.44798 1.036-0.616 0.392-0.16798 0.79333-0.29865 1.204-0.392 0.41066-0.0933 0.82133-0.13998 1.232-0.14 0.85866 2e-5 1.6707 0.16802 2.436 0.504 0.76532 0.33602 1.428 0.79335 1.988 1.372 0.57866 0.56002 1.036 1.2227 1.372 1.988 0.33599 0.76535 0.50399 1.5774 0.504 2.436v0.028l0.028 8.4h-2.016l-0.028-8.4v-0.028c-1e-5 -0.59732-0.11201-1.1573-0.336-1.68-0.22401-0.52265-0.53201-0.97065-0.924-1.344-0.39201-0.39199-0.84934-0.69998-1.372-0.924-0.52267-0.22398-1.0733-0.33598-1.652-0.336-0.56001 2e-5 -1.1013 0.12135-1.624 0.364-0.504 0.24268-0.952 0.56935-1.344 0.98-0.37334 0.39201-0.68134 0.84935-0.924 1.372-0.224 0.50401-0.336 1.036-0.336 1.596v8.4h-2.044v-19.6" style="fill:#808080"/>
   <path id="path4430" d="m373.15 509.55c0 0.78401 0.14933 1.5307 0.448 2.24 0.29867 0.69067 0.70933 1.2973 1.232 1.82 0.52267 0.52267 1.1293 0.93334 1.82 1.232 0.70933 0.29867 1.456 0.448 2.24 0.448s1.5213-0.14933 2.212-0.448c0.70933-0.29866 1.3253-0.70933 1.848-1.232 0.37332-0.37333 0.69066-0.80266 0.952-1.288h2.156l-0.084 0.224c-0.39201 0.93334-0.94268 1.7547-1.652 2.464-0.69068 0.69067-1.5027 1.232-2.436 1.624-0.93334 0.41067-1.932 0.616-2.996 0.616-1.064 0-2.0627-0.20533-2.996-0.616-0.93333-0.392-1.7547-0.93333-2.464-1.624-0.69066-0.70933-1.2413-1.5307-1.652-2.464-0.392-0.93333-0.588-1.932-0.588-2.996 0-1.064 0.196-2.0626 0.588-2.996 0.41067-0.93332 0.96134-1.7453 1.652-2.436 0.70933-0.70932 1.5307-1.26 2.464-1.652 0.93333-0.41065 1.932-0.61598 2.996-0.616 1.064 2e-5 2.0627 0.20535 2.996 0.616 0.93333 0.39202 1.7453 0.94268 2.436 1.652 0.70932 0.69068 1.26 1.5027 1.652 2.436 0.33599 0.76535 0.53199 1.568 0.588 2.408h-13.384c-0.0187 0.20534-0.028 0.40134-0.028 0.588m9.8-4.06c-0.52267-0.52265-1.1387-0.93332-1.848-1.232-0.69067-0.29865-1.428-0.44798-2.212-0.448-0.784 2e-5 -1.5307 0.14935-2.24 0.448-0.69067 0.29868-1.2973 0.70935-1.82 1.232-0.448 0.44801-0.812 0.95201-1.092 1.512h10.276c-0.28001-0.55999-0.63468-1.064-1.064-1.512" style="fill:#808080"/>
   <path id="path4432" d="m388.29 502.58h1.96v2.66c0.0933-0.18665 0.196-0.33599 0.308-0.448 0.70933-0.70932 1.5307-1.26 2.464-1.652 0.93333-0.41065 1.932-0.61598 2.996-0.616v1.96c-0.78401 2e-5 -1.5307 0.14935-2.24 0.448-0.69067 0.29868-1.2973 0.70935-1.82 1.232-0.52267 0.52268-0.93334 1.1387-1.232 1.848-0.29867 0.69068-0.448 1.428-0.448 2.212v6.356h-1.96l-0.028-14" style="fill:#808080"/>
   <path id="path4434" d="m407.32 496.98h1.96v19.6h-1.96v-19.6" style="fill:#808080"/>
   <path id="path4436" d="m412.36 509.55c0 0.78401 0.14933 1.5307 0.448 2.24 0.29867 0.69067 0.70933 1.2973 1.232 1.82 0.52266 0.52267 1.1293 0.93334 1.82 1.232 0.70933 0.29867 1.456 0.448 2.24 0.448 0.78399 0 1.5213-0.14933 2.212-0.448 0.70932-0.29866 1.3253-0.70933 1.848-1.232 0.37332-0.37333 0.69066-0.80266 0.952-1.288h2.156l-0.084 0.224c-0.39201 0.93334-0.94268 1.7547-1.652 2.464-0.69068 0.69067-1.5027 1.232-2.436 1.624-0.93334 0.41067-1.932 0.616-2.996 0.616-1.064 0-2.0627-0.20533-2.996-0.616-0.93334-0.392-1.7547-0.93333-2.464-1.624-0.69067-0.70933-1.2413-1.5307-1.652-2.464-0.392-0.93333-0.588-1.932-0.588-2.996 0-1.064 0.196-2.0626 0.588-2.996 0.41067-0.93332 0.96133-1.7453 1.652-2.436 0.70933-0.70932 1.5307-1.26 2.464-1.652 0.93333-0.41065 1.932-0.61598 2.996-0.616 1.064 2e-5 2.0627 0.20535 2.996 0.616 0.93332 0.39202 1.7453 0.94268 2.436 1.652 0.70932 0.69068 1.26 1.5027 1.652 2.436l0.084 0.196h-2.184c-0.24268-0.46665-0.55068-0.88665-0.924-1.26-0.52268-0.52265-1.1387-0.93332-1.848-1.232-0.69067-0.29865-1.428-0.44798-2.212-0.448-0.78401 2e-5 -1.5307 0.14935-2.24 0.448-0.69067 0.29868-1.2973 0.70935-1.82 1.232-0.52267 0.52268-0.93333 1.1387-1.232 1.848-0.29867 0.69068-0.448 1.428-0.448 2.212" style="fill:#808080"/>
   <path id="path4438" d="m426.59 509.55c0-1.064 0.196-2.0626 0.588-2.996 0.41067-0.93332 0.96133-1.7453 1.652-2.436 0.70933-0.70932 1.5307-1.26 2.464-1.652 0.93333-0.41065 1.932-0.61598 2.996-0.616 1.064 2e-5 2.0627 0.20535 2.996 0.616 0.93332 0.39202 1.7453 0.94268 2.436 1.652 0.70932 0.69068 1.26 1.5027 1.652 2.436 0.41065 0.93335 0.61599 1.932 0.616 2.996-1e-5 1.064-0.20535 2.0627-0.616 2.996-0.39201 0.93334-0.94268 1.7547-1.652 2.464-0.69068 0.69067-1.5027 1.232-2.436 1.624-0.93334 0.41067-1.932 0.616-2.996 0.616-1.064 0-2.0627-0.20533-2.996-0.616-0.93334-0.392-1.7547-0.93333-2.464-1.624-0.69067-0.70933-1.2413-1.5307-1.652-2.464-0.392-0.93333-0.588-1.932-0.588-2.996m1.96 0c0 0.78401 0.14933 1.5307 0.448 2.24 0.29867 0.69067 0.70933 1.2973 1.232 1.82 0.52266 0.52267 1.1293 0.93334 1.82 1.232 0.70933 0.29867 1.456 0.448 2.24 0.448 0.78399 0 1.5213-0.14933 2.212-0.448 0.70932-0.29866 1.3253-0.70933 1.848-1.232 0.52266-0.52266 0.93332-1.1293 1.232-1.82 0.29865-0.70932 0.44799-1.456 0.448-2.24-1e-5 -0.78399-0.14935-1.5213-0.448-2.212-0.29868-0.70932-0.70934-1.3253-1.232-1.848-0.52268-0.52265-1.1387-0.93332-1.848-1.232-0.69067-0.29865-1.428-0.44798-2.212-0.448-0.78401 2e-5 -1.5307 0.14935-2.24 0.448-0.69067 0.29868-1.2973 0.70935-1.82 1.232-0.52267 0.52268-0.93333 1.1387-1.232 1.848-0.29867 0.69068-0.448 1.428-0.448 2.212" style="fill:#808080"/>
   <path id="path4440" d="m454.44 508.18c-1e-5 -0.59732-0.11201-1.1573-0.336-1.68-0.22401-0.52265-0.53201-0.97999-0.924-1.372-0.39201-0.39199-0.84935-0.69998-1.372-0.924-0.52268-0.22398-1.0733-0.33598-1.652-0.336-0.57868 2e-5 -1.1293 0.12135-1.652 0.364-0.52268 0.24268-0.98001 0.56935-1.372 0.98-0.39201 0.39201-0.70934 0.84935-0.952 1.372-0.22401 0.52268-0.33601 1.0547-0.336 1.596l0.028 8.4h-1.988v-14h1.96v1.288c0.18666-0.29865 0.43866-0.56932 0.756-0.812 0.31733-0.26132 0.66266-0.47598 1.036-0.644 0.39199-0.18665 0.80266-0.32665 1.232-0.42 0.42932-0.0933 0.85866-0.13998 1.288-0.14 0.85866 2e-5 1.6706 0.16802 2.436 0.504 0.76532 0.33602 1.428 0.79335 1.988 1.372 0.57865 0.56002 1.036 1.232 1.372 2.016 0.33598 0.76535 0.50398 1.5774 0.504 2.436l0.028 8.4h-2.016l-0.028-8.4" style="fill:#808080"/>
   <path id="path4442" d="m466.24 513.08c0.0187-0.63466-0.10268-1.1293-0.364-1.484-0.24268-0.35466-0.60668-0.64399-1.092-0.868-0.48534-0.22399-1.092-0.42932-1.82-0.616-0.72801-0.18666-1.4-0.41066-2.016-0.672-0.616-0.26132-1.148-0.65332-1.596-1.176-0.448-0.52265-0.71867-1.176-0.812-1.96-0.0747-0.61599 9e-3 -1.1853 0.252-1.708 0.24266-0.52265 0.57866-0.97998 1.008-1.372 0.448-0.41065 0.98-0.73732 1.596-0.98 0.61599-0.26132 1.2507-0.39198 1.904-0.392 0.74666 2e-5 1.3907 0.12135 1.932 0.364 0.55999 0.24268 1.0267 0.56002 1.4 0.952 0.37332 0.37335 0.66266 0.75602 0.868 1.148 0.22399 0.39201 0.35466 0.72801 0.392 1.008h-2.1c-0.16801-0.54132-0.48534-0.95198-0.952-1.232-0.46667-0.29865-0.98001-0.44798-1.54-0.448-0.37334 2e-5 -0.77467 0.0747-1.204 0.224-0.42934 0.14935-0.83067 0.44802-1.204 0.896-0.35467 0.44801-0.48534 0.92401-0.392 1.428 0.0933 0.44801 0.308 0.79335 0.644 1.036 0.35466 0.24268 0.81199 0.46668 1.372 0.672 0.57866 0.20534 1.2133 0.42001 1.904 0.644 0.69066 0.22401 1.3347 0.53201 1.932 0.924 0.61599 0.37334 1.092 0.84934 1.428 1.428 0.33599 0.57867 0.50399 1.3067 0.504 2.184-1e-5 0.65334-0.14001 1.2413-0.42 1.764-0.26134 0.52267-0.62534 0.96134-1.092 1.316-0.44801 0.35467-0.98001 0.62534-1.596 0.812-0.59734 0.18667-1.2227 0.28-1.876 0.28-0.65334 0-1.2973-0.12133-1.932-0.364-0.63467-0.224-1.1947-0.54133-1.68-0.952-0.48534-0.42933-0.87734-0.93333-1.176-1.512-0.28-0.59733-0.41067-1.2973-0.392-2.1h1.988c0 0.48534 0.0933 0.94267 0.28 1.372 0.20533 0.41067 0.56 0.79334 1.064 1.148 0.52266 0.336 1.1853 0.49467 1.988 0.476 0.91466 0 1.596-0.21466 2.044-0.644 0.46666-0.44799 0.71866-0.97999 0.756-1.596" style="fill:#808080"/>
  </g>
 </g>
</svg>
